<svg width="9" height="15" viewBox="0 0 9 15" fill="none" xmlns="http://www.w3.org/2000/svg">
<path d="M2.0003 14.4999C1.76664 14.5004 1.54021 14.419 1.36029 14.2699C1.25904 14.186 1.17533 14.0829 1.11398 13.9665C1.05263 13.8502 1.01483 13.7229 1.00276 13.5919C0.990683 13.4609 1.00456 13.3289 1.04361 13.2033C1.08265 13.0777 1.14609 12.961 1.23029 12.8599L5.7103 7.49994L1.3903 2.12994C1.30723 2.02765 1.2452 1.90996 1.20777 1.78362C1.17033 1.65728 1.15824 1.52479 1.17218 1.39376C1.18612 1.26273 1.22582 1.13575 1.28899 1.02011C1.35216 0.904475 1.43757 0.802463 1.5403 0.71994C1.64376 0.628904 1.76493 0.560236 1.89619 0.518247C2.02745 0.476258 2.16598 0.461855 2.30307 0.47594C2.44016 0.490024 2.57286 0.532294 2.69285 0.600096C2.81283 0.667898 2.9175 0.759768 3.0003 0.869941L7.8303 6.86994C7.97738 7.04887 8.05778 7.27332 8.05778 7.50494C8.05778 7.73657 7.97738 7.96101 7.8303 8.13994L2.8303 14.1399C2.72998 14.261 2.60254 14.3566 2.45833 14.4192C2.31413 14.4817 2.1572 14.5094 2.0003 14.4999Z" fill="#464646"/>
</svg>
