<svg width="52" height="36" viewBox="0 0 52 36" fill="none" xmlns="http://www.w3.org/2000/svg">
<path d="M22.336 6.824L23.1094 7.45796L23.6758 6.767L23.0527 6.12664L22.336 6.824ZM6.4 26.264L5.48699 26.6719L6.14726 28.1497L7.17336 26.898L6.4 26.264ZM8.416 29.288L7.64264 28.654L7.08377 29.3358L7.69005 29.9757L8.416 29.288ZM24.352 9.848L25.265 9.44006L24.6047 7.96231L23.5786 9.21403L24.352 9.848ZM15.424 -0.320002C10.3812 -0.320002 6.47178 1.66867 3.84805 5.02627C1.24832 8.35314 -0.0239999 12.9363 -0.0239999 18.056H1.976C1.976 13.2397 3.17568 9.13486 5.42396 6.25773C7.64822 3.41133 10.9628 1.68 15.424 1.68V-0.320002ZM-0.0239999 18.056C-0.0239999 23.1988 1.24787 27.7938 3.84747 31.127C6.47128 34.4912 10.3811 36.48 15.424 36.48V34.48C10.9629 34.48 7.64872 32.7488 5.42453 29.897C3.17613 27.0142 1.976 22.8972 1.976 18.056H-0.0239999ZM15.424 36.48C20.4224 36.48 24.3078 34.4885 26.918 31.1251C29.5041 27.7927 30.776 23.1988 30.776 18.056H28.776C28.776 22.8972 27.5759 27.0153 25.338 29.8989C23.1242 32.7515 19.8336 34.48 15.424 34.48V36.48ZM30.776 18.056C30.776 12.9362 29.5037 8.35425 26.9174 5.02816C24.3073 1.67138 20.4223 -0.320002 15.424 -0.320002V1.68C19.8337 1.68 23.1247 3.40862 25.3386 6.25583C27.5763 9.13375 28.776 13.2398 28.776 18.056H30.776ZM15.424 5.04C18.0928 5.04 20.0869 5.94642 21.6193 7.52135L23.0527 6.12664C21.1291 4.14958 18.6112 3.04 15.424 3.04V5.04ZM21.5626 6.19003L5.62664 25.63L7.17336 26.898L23.1094 7.45796L21.5626 6.19003ZM7.31301 25.8561C6.37519 23.7571 5.864 21.1187 5.864 18.056H3.864C3.864 21.3293 4.40881 24.2589 5.48699 26.6719L7.31301 25.8561ZM5.864 18.056C5.864 14.0996 6.71631 10.8235 8.31426 8.56569C9.88128 6.35154 12.2143 5.04 15.424 5.04V3.04C11.5777 3.04 8.63072 4.65646 6.68174 7.41031C4.76369 10.1205 3.864 13.8524 3.864 18.056H5.864ZM15.424 31.12C12.7003 31.12 10.6663 30.2093 9.14195 28.6003L7.69005 29.9757C9.62169 32.0147 12.1957 33.12 15.424 33.12V31.12ZM9.18936 29.922L25.1254 10.482L23.5786 9.21403L7.64264 28.654L9.18936 29.922ZM23.439 10.2559C24.3768 12.3549 24.888 14.9933 24.888 18.056H26.888C26.888 14.7827 26.3432 11.8531 25.265 9.44006L23.439 10.2559ZM24.888 18.056C24.888 22.0399 24.0463 25.3293 22.4643 27.5932C20.9141 29.8116 18.6061 31.12 15.424 31.12V33.12C19.2499 33.12 22.1739 31.5004 24.1037 28.7388C26.0017 26.0227 26.888 22.2801 26.888 18.056H24.888ZM34.7616 16.184L34.3878 15.2565L33.4854 15.6201L33.8242 16.5322L34.7616 16.184ZM36.0096 19.544L35.0722 19.8922L35.4065 20.7922L36.3193 20.4948L36.0096 19.544ZM47.0496 2.264V1.264H46.1117L46.0517 2.20003L47.0496 2.264ZM48.2016 2.264L49.1728 2.50252L49.477 1.264H48.2016V2.264ZM47.5296 5L46.5585 4.76148L46.5296 4.87899V5H47.5296ZM47.5296 35H46.5296V36H47.5296V35ZM51.4656 35V36H52.4656V35H51.4656ZM51.4656 1.16H52.4656V0.159998H51.4656V1.16ZM43.4976 1.16V0.159998H42.5119L42.4977 1.14561L43.4976 1.16ZM33.8242 16.5322L35.0722 19.8922L36.9471 19.1958L35.6991 15.8358L33.8242 16.5322ZM36.3193 20.4948C40.7656 19.0466 43.608 16.4273 45.3786 13.1628C47.1295 9.9348 47.8038 6.13058 48.0476 2.32797L46.0517 2.20003C45.8154 5.88542 45.1697 9.3532 43.6206 12.2092C42.0913 15.0287 39.6537 17.3054 35.6999 18.5932L36.3193 20.4948ZM47.0496 3.264H48.2016V1.264H47.0496V3.264ZM47.2305 2.02547L46.5585 4.76148L48.5008 5.23852L49.1728 2.50252L47.2305 2.02547ZM46.5296 5V35H48.5296V5H46.5296ZM47.5296 36H51.4656V34H47.5296V36ZM52.4656 35V1.16H50.4656V35H52.4656ZM51.4656 0.159998H43.4976V2.16H51.4656V0.159998ZM42.4977 1.14561C42.4046 7.61711 40.289 12.8784 34.3878 15.2565L35.1354 17.1115C42.0983 14.3056 44.3986 8.04688 44.4975 1.17438L42.4977 1.14561Z" fill="white"/>
</svg>
