<svg width="62" height="36" viewBox="0 0 62 36" fill="none" xmlns="http://www.w3.org/2000/svg">
<path d="M22.336 6.824L23.1094 7.45796L23.6758 6.767L23.0527 6.12664L22.336 6.824ZM6.4 26.264L5.48699 26.6719L6.14726 28.1497L7.17336 26.898L6.4 26.264ZM8.416 29.288L7.64264 28.654L7.08377 29.3358L7.69005 29.9757L8.416 29.288ZM24.352 9.848L25.265 9.44006L24.6047 7.96231L23.5786 9.21403L24.352 9.848ZM15.424 -0.320002C10.3812 -0.320002 6.47178 1.66867 3.84805 5.02627C1.24832 8.35314 -0.0239999 12.9363 -0.0239999 18.056H1.976C1.976 13.2397 3.17568 9.13486 5.42396 6.25773C7.64822 3.41133 10.9628 1.68 15.424 1.68V-0.320002ZM-0.0239999 18.056C-0.0239999 23.1988 1.24787 27.7938 3.84747 31.127C6.47128 34.4912 10.3811 36.48 15.424 36.48V34.48C10.9629 34.48 7.64872 32.7488 5.42453 29.897C3.17613 27.0142 1.976 22.8972 1.976 18.056H-0.0239999ZM15.424 36.48C20.4224 36.48 24.3078 34.4885 26.918 31.1251C29.5041 27.7927 30.776 23.1988 30.776 18.056H28.776C28.776 22.8972 27.5759 27.0153 25.338 29.8989C23.1242 32.7515 19.8336 34.48 15.424 34.48V36.48ZM30.776 18.056C30.776 12.9362 29.5037 8.35425 26.9174 5.02816C24.3073 1.67138 20.4223 -0.320002 15.424 -0.320002V1.68C19.8337 1.68 23.1247 3.40862 25.3386 6.25583C27.5763 9.13375 28.776 13.2398 28.776 18.056H30.776ZM15.424 5.04C18.0928 5.04 20.0869 5.94642 21.6193 7.52135L23.0527 6.12664C21.1291 4.14958 18.6112 3.04 15.424 3.04V5.04ZM21.5626 6.19003L5.62664 25.63L7.17336 26.898L23.1094 7.45796L21.5626 6.19003ZM7.31301 25.8561C6.37519 23.7571 5.864 21.1187 5.864 18.056H3.864C3.864 21.3293 4.40881 24.2589 5.48699 26.6719L7.31301 25.8561ZM5.864 18.056C5.864 14.0996 6.71631 10.8235 8.31426 8.56569C9.88128 6.35154 12.2143 5.04 15.424 5.04V3.04C11.5777 3.04 8.63072 4.65646 6.68174 7.41031C4.76369 10.1205 3.864 13.8524 3.864 18.056H5.864ZM15.424 31.12C12.7003 31.12 10.6663 30.2093 9.14195 28.6003L7.69005 29.9757C9.62169 32.0147 12.1957 33.12 15.424 33.12V31.12ZM9.18936 29.922L25.1254 10.482L23.5786 9.21403L7.64264 28.654L9.18936 29.922ZM23.439 10.2559C24.3768 12.3549 24.888 14.9933 24.888 18.056H26.888C26.888 14.7827 26.3432 11.8531 25.265 9.44006L23.439 10.2559ZM24.888 18.056C24.888 22.0399 24.0463 25.3293 22.4643 27.5932C20.9141 29.8116 18.6061 31.12 15.424 31.12V33.12C19.2499 33.12 22.1739 31.5004 24.1037 28.7388C26.0017 26.0227 26.888 22.2801 26.888 18.056H24.888ZM34.9034 17.48H33.9034V18.48H34.9034V17.48ZM38.8394 17.48V18.48H39.8394V17.48H38.8394ZM35.3834 28.136L35.2458 27.1455L34.3834 27.2653V28.136H35.3834ZM35.3834 35H34.3834V36H35.3834V35ZM61.5434 35V36H62.5434V35H61.5434ZM61.5434 31.64H62.5434V30.64H61.5434V31.64ZM39.3194 31.64V30.64H39.2087L39.1007 30.6642L39.3194 31.64ZM36.5354 32.264H35.5354V33.5129L36.7541 33.2398L36.5354 32.264ZM36.5354 31.16L36.3792 30.1723L35.5354 30.3057V31.16H36.5354ZM34.9034 18.48H38.8394V16.48H34.9034V18.48ZM39.8394 17.48C39.8394 12.5654 40.9304 9.49236 42.5936 7.65013C44.2382 5.82864 46.5986 5.04 49.5434 5.04V3.04C46.2482 3.04 43.2566 3.93136 41.1091 6.30986C38.9804 8.66764 37.8394 12.3146 37.8394 17.48H39.8394ZM49.5434 5.04C51.9416 5.04 53.6727 5.67708 54.8037 6.77843C55.9303 7.87545 56.6074 9.57548 56.6074 12.008H58.6074C58.6074 9.20852 57.8205 6.92455 56.199 5.34557C54.582 3.77092 52.2811 3.04 49.5434 3.04V5.04ZM56.6074 12.008C56.6074 17.5954 52.3918 21.2534 47.3637 23.632C42.3762 25.9915 36.9381 26.9105 35.2458 27.1455L35.5209 29.1265C37.2846 28.8815 42.9586 27.9285 48.219 25.44C53.4389 22.9706 58.6074 18.8046 58.6074 12.008H56.6074ZM34.3834 28.136V35H36.3834V28.136H34.3834ZM35.3834 36H61.5434V34H35.3834V36ZM62.5434 35V31.64H60.5434V35H62.5434ZM61.5434 30.64H39.3194V32.64H61.5434V30.64ZM39.1007 30.6642L36.3167 31.2882L36.7541 33.2398L39.5381 32.6158L39.1007 30.6642ZM37.5354 32.264V31.16H35.5354V32.264H37.5354ZM36.6915 32.1477C43.7507 31.0318 50.1684 28.9696 54.8474 25.7236C59.5594 22.4547 62.5434 17.95 62.5434 12.056H60.5434C60.5434 17.154 58.0073 21.0973 53.7074 24.0804C49.3743 27.0864 43.288 29.0802 36.3792 30.1723L36.6915 32.1477ZM62.5434 12.056C62.5434 8.12807 61.2346 4.99534 58.866 2.85417C56.5117 0.726015 53.2245 -0.320002 49.4474 -0.320002V1.68C52.8703 1.68 55.6311 2.62598 57.5248 4.33783C59.4041 6.03666 60.5434 8.59193 60.5434 12.056H62.5434ZM49.4474 -0.320002C45.2072 -0.320002 41.2811 0.887186 38.4191 3.80814C35.5581 6.72811 33.9034 11.2148 33.9034 17.48H35.9034C35.9034 11.5532 37.4647 7.63989 39.8477 5.20786C42.2296 2.77681 45.5756 1.68 49.4474 1.68V-0.320002Z" fill="white"/>
</svg>
