<svg width="62" height="36" viewBox="0 0 62 36" fill="none" xmlns="http://www.w3.org/2000/svg">
<path d="M22.336 6.824L23.1094 7.45796L23.6758 6.767L23.0527 6.12664L22.336 6.824ZM6.4 26.264L5.48699 26.6719L6.14726 28.1497L7.17336 26.898L6.4 26.264ZM8.416 29.288L7.64264 28.654L7.08377 29.3358L7.69005 29.9757L8.416 29.288ZM24.352 9.848L25.265 9.44006L24.6047 7.96231L23.5786 9.21403L24.352 9.848ZM15.424 -0.320002C10.3812 -0.320002 6.47178 1.66867 3.84805 5.02627C1.24832 8.35314 -0.0239999 12.9363 -0.0239999 18.056H1.976C1.976 13.2397 3.17568 9.13486 5.42396 6.25773C7.64822 3.41133 10.9628 1.68 15.424 1.68V-0.320002ZM-0.0239999 18.056C-0.0239999 23.1988 1.24787 27.7938 3.84747 31.127C6.47128 34.4912 10.3811 36.48 15.424 36.48V34.48C10.9629 34.48 7.64872 32.7488 5.42453 29.897C3.17613 27.0142 1.976 22.8972 1.976 18.056H-0.0239999ZM15.424 36.48C20.4224 36.48 24.3078 34.4885 26.918 31.1251C29.5041 27.7927 30.776 23.1988 30.776 18.056H28.776C28.776 22.8972 27.5759 27.0153 25.338 29.8989C23.1242 32.7515 19.8336 34.48 15.424 34.48V36.48ZM30.776 18.056C30.776 12.9362 29.5037 8.35425 26.9174 5.02816C24.3073 1.67138 20.4223 -0.320002 15.424 -0.320002V1.68C19.8337 1.68 23.1247 3.40862 25.3386 6.25583C27.5763 9.13375 28.776 13.2398 28.776 18.056H30.776ZM15.424 5.04C18.0928 5.04 20.0869 5.94642 21.6193 7.52135L23.0527 6.12664C21.1291 4.14958 18.6112 3.04 15.424 3.04V5.04ZM21.5626 6.19003L5.62664 25.63L7.17336 26.898L23.1094 7.45796L21.5626 6.19003ZM7.31301 25.8561C6.37519 23.7571 5.864 21.1187 5.864 18.056H3.864C3.864 21.3293 4.40881 24.2589 5.48699 26.6719L7.31301 25.8561ZM5.864 18.056C5.864 14.0996 6.71631 10.8235 8.31426 8.56569C9.88128 6.35154 12.2143 5.04 15.424 5.04V3.04C11.5777 3.04 8.63072 4.65646 6.68174 7.41031C4.76369 10.1205 3.864 13.8524 3.864 18.056H5.864ZM15.424 31.12C12.7003 31.12 10.6663 30.2093 9.14195 28.6003L7.69005 29.9757C9.62169 32.0147 12.1957 33.12 15.424 33.12V31.12ZM9.18936 29.922L25.1254 10.482L23.5786 9.21403L7.64264 28.654L9.18936 29.922ZM23.439 10.2559C24.3768 12.3549 24.888 14.9933 24.888 18.056H26.888C26.888 14.7827 26.3432 11.8531 25.265 9.44006L23.439 10.2559ZM24.888 18.056C24.888 22.0399 24.0463 25.3293 22.4643 27.5932C20.9141 29.8116 18.6061 31.12 15.424 31.12V33.12C19.2499 33.12 22.1739 31.5004 24.1037 28.7388C26.0017 26.0227 26.888 22.2801 26.888 18.056H24.888ZM35.2394 22.088V21.088H34.2394V22.088H35.2394ZM54.8234 17.72H53.8234V18.5398L54.6273 18.7006L54.8234 17.72ZM54.8234 16.616L54.6697 15.6279L53.8234 15.7595V16.616H54.8234ZM35.7194 12.248H34.7194V13.248H35.7194V12.248ZM39.6554 12.248V13.248H40.6554V12.248H39.6554ZM46.6634 15.512V14.512H45.6634V15.512H46.6634ZM46.6634 18.872H45.6634V19.872H46.6634V18.872ZM39.1754 22.088H40.1754V21.088H39.1754V22.088ZM34.2394 22.088C34.2394 26.9525 35.6038 30.6094 38.2684 33.0337C40.9155 35.4419 44.6789 36.48 49.1594 36.48V34.48C44.9519 34.48 41.7552 33.5021 39.6143 31.5543C37.491 29.6226 36.2394 26.5835 36.2394 22.088H34.2394ZM49.1594 36.48C53.3565 36.48 56.7709 35.5005 59.1578 33.6123C61.5743 31.7006 62.8314 28.9395 62.8314 25.64H60.8314C60.8314 28.3885 59.8085 30.5474 57.917 32.0437C55.9958 33.5635 53.0743 34.48 49.1594 34.48V36.48ZM62.8314 25.64C62.8314 22.8695 62.1077 20.8205 60.658 19.3564C59.2381 17.9225 57.252 17.1859 55.0195 16.7394L54.6273 18.7006C56.7148 19.1181 58.2327 19.7495 59.2368 20.7636C60.2111 21.7475 60.8314 23.2264 60.8314 25.64H62.8314ZM55.8234 17.72V16.616H53.8234V17.72H55.8234ZM54.9771 17.6041C57.2584 17.2492 59.1302 16.4802 60.4295 15.1237C61.7455 13.75 62.3514 11.9033 62.3514 9.656H60.3514C60.3514 11.5367 59.8533 12.834 58.9852 13.7403C58.1006 14.6638 56.7084 15.3108 54.6697 15.6279L54.9771 17.6041ZM62.3514 9.656C62.3514 6.77755 61.2061 4.23524 58.9147 2.43728C56.6498 0.66008 53.3578 -0.320002 49.1594 -0.320002V1.68C53.0729 1.68 55.877 2.59592 57.6801 4.01072C59.4567 5.40476 60.3514 7.35044 60.3514 9.656H62.3514ZM49.1594 -0.320002C44.6777 -0.320002 41.05 0.718307 38.5304 2.87888C35.9854 5.06127 34.7194 8.26028 34.7194 12.248H36.7194C36.7194 8.69972 37.8293 6.11473 39.8323 4.39711C41.8608 2.65769 44.953 1.68 49.1594 1.68V-0.320002ZM35.7194 13.248H39.6554V11.248H35.7194V13.248ZM40.6554 12.248C40.6554 9.63645 41.2899 7.91692 42.5177 6.81962C43.7723 5.69841 45.85 5.04 49.1594 5.04V3.04C45.6528 3.04 42.9784 3.72559 41.185 5.32837C39.3648 6.95508 38.6554 9.33955 38.6554 12.248H40.6554ZM49.1594 5.04C52.1232 5.04 53.9123 5.64645 54.9512 6.51222C55.9527 7.34681 56.4154 8.55772 56.4154 10.184H58.4154C58.4154 8.16227 57.822 6.30118 56.2316 4.97578C54.6785 3.68154 52.3396 3.04 49.1594 3.04V5.04ZM56.4154 10.184C56.4154 11.8325 55.9753 12.8405 55.2632 13.4631C54.5229 14.1103 53.2973 14.512 51.3674 14.512V16.512C53.5174 16.512 55.3158 16.0737 56.5796 14.9689C57.8714 13.8395 58.4154 12.1835 58.4154 10.184H56.4154ZM51.3674 14.512H46.6634V16.512H51.3674V14.512ZM45.6634 15.512V18.872H47.6634V15.512H45.6634ZM46.6634 19.872H51.3674V17.872H46.6634V19.872ZM51.3674 19.872C53.2907 19.872 54.6373 20.2829 55.4998 21.0438C56.3374 21.7829 56.8954 23.0114 56.8954 25.064H58.8954C58.8954 22.6526 58.2294 20.7851 56.823 19.5442C55.4414 18.3251 53.524 17.872 51.3674 17.872V19.872ZM56.8954 25.064C56.8954 27.1524 56.3089 28.5913 55.1867 29.5375C54.0294 30.5134 52.1234 31.12 49.1594 31.12V33.12C52.3393 33.12 54.8014 32.4786 56.476 31.0665C58.1858 29.6247 58.8954 27.5356 58.8954 25.064H56.8954ZM49.1594 31.12C45.8492 31.12 43.6735 30.4612 42.3066 29.1392C40.9464 27.8237 40.1754 25.6448 40.1754 22.088H38.1754C38.1754 25.8752 38.9883 28.7123 40.9162 30.5768C42.8372 32.4348 45.6535 33.12 49.1594 33.12V31.12ZM39.1754 21.088H35.2394V23.088H39.1754V21.088Z" fill="white"/>
</svg>
