<svg width="62" height="36" viewBox="0 0 62 36" fill="none" xmlns="http://www.w3.org/2000/svg">
<path d="M22.336 6.824L23.1094 7.45796L23.6758 6.767L23.0527 6.12664L22.336 6.824ZM6.4 26.264L5.48699 26.6719L6.14726 28.1497L7.17336 26.898L6.4 26.264ZM8.416 29.288L7.64264 28.654L7.08377 29.3358L7.69005 29.9757L8.416 29.288ZM24.352 9.848L25.265 9.44006L24.6047 7.96231L23.5786 9.21403L24.352 9.848ZM15.424 -0.320002C10.3812 -0.320002 6.47178 1.66867 3.84805 5.02627C1.24832 8.35314 -0.0239999 12.9363 -0.0239999 18.056H1.976C1.976 13.2397 3.17568 9.13486 5.42396 6.25773C7.64822 3.41133 10.9628 1.68 15.424 1.68V-0.320002ZM-0.0239999 18.056C-0.0239999 23.1988 1.24787 27.7938 3.84747 31.127C6.47128 34.4912 10.3811 36.48 15.424 36.48V34.48C10.9629 34.48 7.64872 32.7488 5.42453 29.897C3.17613 27.0142 1.976 22.8972 1.976 18.056H-0.0239999ZM15.424 36.48C20.4224 36.48 24.3078 34.4885 26.918 31.1251C29.5041 27.7927 30.776 23.1988 30.776 18.056H28.776C28.776 22.8972 27.5759 27.0153 25.338 29.8989C23.1242 32.7515 19.8336 34.48 15.424 34.48V36.48ZM30.776 18.056C30.776 12.9362 29.5037 8.35425 26.9174 5.02816C24.3073 1.67138 20.4223 -0.320002 15.424 -0.320002V1.68C19.8337 1.68 23.1247 3.40862 25.3386 6.25583C27.5763 9.13375 28.776 13.2398 28.776 18.056H30.776ZM15.424 5.04C18.0928 5.04 20.0869 5.94642 21.6193 7.52135L23.0527 6.12664C21.1291 4.14958 18.6112 3.04 15.424 3.04V5.04ZM21.5626 6.19003L5.62664 25.63L7.17336 26.898L23.1094 7.45796L21.5626 6.19003ZM7.31301 25.8561C6.37519 23.7571 5.864 21.1187 5.864 18.056H3.864C3.864 21.3293 4.40881 24.2589 5.48699 26.6719L7.31301 25.8561ZM5.864 18.056C5.864 14.0996 6.71631 10.8235 8.31426 8.56569C9.88128 6.35154 12.2143 5.04 15.424 5.04V3.04C11.5777 3.04 8.63072 4.65646 6.68174 7.41031C4.76369 10.1205 3.864 13.8524 3.864 18.056H5.864ZM15.424 31.12C12.7003 31.12 10.6663 30.2093 9.14195 28.6003L7.69005 29.9757C9.62169 32.0147 12.1957 33.12 15.424 33.12V31.12ZM9.18936 29.922L25.1254 10.482L23.5786 9.21403L7.64264 28.654L9.18936 29.922ZM23.439 10.2559C24.3768 12.3549 24.888 14.9933 24.888 18.056H26.888C26.888 14.7827 26.3432 11.8531 25.265 9.44006L23.439 10.2559ZM24.888 18.056C24.888 22.0399 24.0463 25.3293 22.4643 27.5932C20.9141 29.8116 18.6061 31.12 15.424 31.12V33.12C19.2499 33.12 22.1739 31.5004 24.1037 28.7388C26.0017 26.0227 26.888 22.2801 26.888 18.056H24.888ZM61.6394 24.152H62.6394V23.152H61.6394V24.152ZM57.2714 24.152H56.2714V25.152H57.2714V24.152ZM57.2714 11.864H58.2714V10.864H57.2714V11.864ZM53.3354 11.864V10.864H52.3354V11.864H53.3354ZM53.3354 24.152V25.152H54.3354V24.152H53.3354ZM39.3194 24.152V23.152H39.2004L39.0847 23.1799L39.3194 24.152ZM36.5354 24.824H35.5354V26.0941L36.77 25.7961L36.5354 24.824ZM36.5354 23.672L36.1285 22.7585L35.5354 23.0227V23.672H36.5354ZM54.3914 1.16L55.3828 1.29084L55.532 0.159998H54.3914V1.16ZM50.4554 1.16V0.159998H49.5578L49.4612 1.05238L50.4554 1.16ZM35.3834 20.504L34.9922 19.5837L34.3834 19.8424V20.504H35.3834ZM35.3834 27.512H34.3834V28.512H35.3834V27.512ZM53.3354 27.512H54.3354V26.512H53.3354V27.512ZM53.3354 35H52.3354V36H53.3354V35ZM57.2714 35V36H58.2714V35H57.2714ZM57.2714 27.512V26.512H56.2714V27.512H57.2714ZM61.6394 27.512V28.512H62.6394V27.512H61.6394ZM61.6394 23.152H57.2714V25.152H61.6394V23.152ZM58.2714 24.152V11.864H56.2714V24.152H58.2714ZM57.2714 10.864H53.3354V12.864H57.2714V10.864ZM52.3354 11.864V24.152H54.3354V11.864H52.3354ZM53.3354 23.152H39.3194V25.152H53.3354V23.152ZM39.0847 23.1799L36.3007 23.8519L36.77 25.7961L39.554 25.1241L39.0847 23.1799ZM37.5354 24.824V23.672H35.5354V24.824H37.5354ZM36.9422 24.5855C48.6758 19.3596 54.0881 11.1003 55.3828 1.29084L53.4 1.02915C52.1986 10.1317 47.2429 17.8084 36.1285 22.7585L36.9422 24.5855ZM54.3914 0.159998H50.4554V2.16H54.3914V0.159998ZM49.4612 1.05238C48.5 9.93148 42.4121 16.4302 34.9922 19.5837L35.7745 21.4243C43.7146 18.0498 50.3947 11.0125 51.4496 1.26762L49.4612 1.05238ZM34.3834 20.504V27.512H36.3834V20.504H34.3834ZM35.3834 28.512H53.3354V26.512H35.3834V28.512ZM52.3354 27.512V35H54.3354V27.512H52.3354ZM53.3354 36H57.2714V34H53.3354V36ZM58.2714 35V27.512H56.2714V35H58.2714ZM57.2714 28.512H61.6394V26.512H57.2714V28.512ZM62.6394 27.512V24.152H60.6394V27.512H62.6394Z" fill="white"/>
</svg>
