<svg width="63" height="36" viewBox="0 0 63 36" fill="none" xmlns="http://www.w3.org/2000/svg">
<path d="M22.336 6.824L23.1094 7.45796L23.6758 6.767L23.0527 6.12664L22.336 6.824ZM6.4 26.264L5.48699 26.6719L6.14726 28.1497L7.17336 26.898L6.4 26.264ZM8.416 29.288L7.64264 28.654L7.08377 29.3358L7.69005 29.9757L8.416 29.288ZM24.352 9.848L25.265 9.44006L24.6047 7.96231L23.5786 9.21403L24.352 9.848ZM15.424 -0.320002C10.3812 -0.320002 6.47178 1.66867 3.84805 5.02627C1.24832 8.35314 -0.0239999 12.9363 -0.0239999 18.056H1.976C1.976 13.2397 3.17568 9.13486 5.42396 6.25773C7.64822 3.41133 10.9628 1.68 15.424 1.68V-0.320002ZM-0.0239999 18.056C-0.0239999 23.1988 1.24787 27.7938 3.84747 31.127C6.47128 34.4912 10.3811 36.48 15.424 36.48V34.48C10.9629 34.48 7.64872 32.7488 5.42453 29.897C3.17613 27.0142 1.976 22.8972 1.976 18.056H-0.0239999ZM15.424 36.48C20.4224 36.48 24.3078 34.4885 26.918 31.1251C29.5041 27.7927 30.776 23.1988 30.776 18.056H28.776C28.776 22.8972 27.5759 27.0153 25.338 29.8989C23.1242 32.7515 19.8336 34.48 15.424 34.48V36.48ZM30.776 18.056C30.776 12.9362 29.5037 8.35425 26.9174 5.02816C24.3073 1.67138 20.4223 -0.320002 15.424 -0.320002V1.68C19.8337 1.68 23.1247 3.40862 25.3386 6.25583C27.5763 9.13375 28.776 13.2398 28.776 18.056H30.776ZM15.424 5.04C18.0928 5.04 20.0869 5.94642 21.6193 7.52135L23.0527 6.12664C21.1291 4.14958 18.6112 3.04 15.424 3.04V5.04ZM21.5626 6.19003L5.62664 25.63L7.17336 26.898L23.1094 7.45796L21.5626 6.19003ZM7.31301 25.8561C6.37519 23.7571 5.864 21.1187 5.864 18.056H3.864C3.864 21.3293 4.40881 24.2589 5.48699 26.6719L7.31301 25.8561ZM5.864 18.056C5.864 14.0996 6.71631 10.8235 8.31426 8.56569C9.88128 6.35154 12.2143 5.04 15.424 5.04V3.04C11.5777 3.04 8.63072 4.65646 6.68174 7.41031C4.76369 10.1205 3.864 13.8524 3.864 18.056H5.864ZM15.424 31.12C12.7003 31.12 10.6663 30.2093 9.14195 28.6003L7.69005 29.9757C9.62169 32.0147 12.1957 33.12 15.424 33.12V31.12ZM9.18936 29.922L25.1254 10.482L23.5786 9.21403L7.64264 28.654L9.18936 29.922ZM23.439 10.2559C24.3768 12.3549 24.888 14.9933 24.888 18.056H26.888C26.888 14.7827 26.3432 11.8531 25.265 9.44006L23.439 10.2559ZM24.888 18.056C24.888 22.0399 24.0463 25.3293 22.4643 27.5932C20.9141 29.8116 18.6061 31.12 15.424 31.12V33.12C19.2499 33.12 22.1739 31.5004 24.1037 28.7388C26.0017 26.0227 26.888 22.2801 26.888 18.056H24.888ZM34.7729 22.952V21.952H33.7729V22.952H34.7729ZM41.6369 15.992L41.155 16.8682L41.9849 17.3247L42.4857 16.5207L41.6369 15.992ZM40.6769 15.464L39.7019 15.2416L39.5342 15.9768L40.195 16.3402L40.6769 15.464ZM41.3009 12.728L42.2758 12.9504L42.3009 12.8406V12.728H41.3009ZM41.3009 4.52V3.52H40.3009V4.52H41.3009ZM60.2129 4.52V5.52H61.2129V4.52H60.2129ZM60.2129 1.16H61.2129V0.159998H60.2129V1.16ZM37.4129 1.16V0.159998H36.4129V1.16H37.4129ZM37.4129 15.992H36.4129V16.6022L36.9555 16.8813L37.4129 15.992ZM42.4529 18.584L41.9955 19.4733L42.7896 19.8817L43.2849 19.1387L42.4529 18.584ZM38.6609 22.952H39.6609V21.952H38.6609V22.952ZM33.7729 22.952C33.7729 27.1962 35.2049 30.6224 37.8877 32.974C40.5522 35.3095 44.3299 36.48 48.8369 36.48V34.48C44.6558 34.48 41.4016 33.3945 39.206 31.47C37.0288 29.5616 35.7729 26.7238 35.7729 22.952H33.7729ZM48.8369 36.48C53.152 36.48 56.8575 35.2365 59.4951 32.8285C62.1442 30.41 63.6129 26.9103 63.6129 22.616H61.6129C61.6129 26.4337 60.3215 29.366 58.1466 31.3515C55.9603 33.3475 52.7777 34.48 48.8369 34.48V36.48ZM63.6129 22.616C63.6129 18.7619 62.5282 15.5134 60.4576 13.2164C58.3762 10.9074 55.391 9.664 51.8129 9.664V11.664C54.9067 11.664 57.3216 12.7246 58.9721 14.5556C60.6335 16.3986 61.6129 19.1261 61.6129 22.616H63.6129ZM51.8129 9.664C46.6586 9.664 42.7899 12.2498 40.7881 15.4633L42.4857 16.5207C44.1318 13.8782 47.3671 11.664 51.8129 11.664V9.664ZM42.1188 15.1158L41.1588 14.5878L40.195 16.3402L41.155 16.8682L42.1188 15.1158ZM41.6518 15.6864L42.2758 12.9504L40.3259 12.5056L39.7019 15.2416L41.6518 15.6864ZM42.3009 12.728V4.52H40.3009V12.728H42.3009ZM41.3009 5.52H60.2129V3.52H41.3009V5.52ZM61.2129 4.52V1.16H59.2129V4.52H61.2129ZM60.2129 0.159998H37.4129V2.16H60.2129V0.159998ZM36.4129 1.16V15.992H38.4129V1.16H36.4129ZM36.9555 16.8813L41.9955 19.4733L42.9102 17.6947L37.8702 15.1027L36.9555 16.8813ZM43.2849 19.1387C44.7704 16.9104 47.1239 15.024 51.0449 15.024V13.024C46.3259 13.024 43.3993 15.3616 41.6208 18.0293L43.2849 19.1387ZM51.0449 15.024C53.4216 15.024 55.0235 15.7529 56.0496 16.9354C57.0967 18.142 57.6769 19.9728 57.6769 22.424H59.6769C59.6769 19.6912 59.0331 17.3219 57.5602 15.6246C56.0663 13.9031 53.8521 13.024 51.0449 13.024V15.024ZM57.6769 22.424C57.6769 25.3528 56.836 27.4896 55.3975 28.8973C53.9556 30.3082 51.7772 31.12 48.8369 31.12V33.12C52.1365 33.12 54.8781 32.2038 56.7963 30.3267C58.7178 28.4464 59.6769 25.7352 59.6769 22.424H57.6769ZM48.8369 31.12C45.5952 31.12 43.3323 30.3488 41.8846 29.029C40.4531 27.7239 39.6609 25.7373 39.6609 22.952H37.6609C37.6609 26.1187 38.5727 28.7161 40.5372 30.507C42.4855 32.2832 45.3105 33.12 48.8369 33.12V31.12ZM38.6609 21.952H34.7729V23.952H38.6609V21.952Z" fill="white"/>
</svg>
