<svg width="63" height="37" viewBox="0 0 63 37" fill="none" xmlns="http://www.w3.org/2000/svg">
<path d="M22.336 7.824L23.1094 8.45796L23.6758 7.767L23.0527 7.12664L22.336 7.824ZM6.4 27.264L5.48699 27.6719L6.14726 29.1497L7.17336 27.898L6.4 27.264ZM8.416 30.288L7.64264 29.654L7.08377 30.3358L7.69005 30.9757L8.416 30.288ZM24.352 10.848L25.265 10.4401L24.6047 8.96231L23.5786 10.214L24.352 10.848ZM15.424 0.679998C10.3812 0.679998 6.47178 2.66867 3.84805 6.02627C1.24832 9.35314 -0.0239999 13.9363 -0.0239999 19.056H1.976C1.976 14.2397 3.17568 10.1349 5.42396 7.25773C7.64822 4.41133 10.9628 2.68 15.424 2.68V0.679998ZM-0.0239999 19.056C-0.0239999 24.1988 1.24787 28.7938 3.84747 32.127C6.47128 35.4912 10.3811 37.48 15.424 37.48V35.48C10.9629 35.48 7.64872 33.7488 5.42453 30.897C3.17613 28.0142 1.976 23.8972 1.976 19.056H-0.0239999ZM15.424 37.48C20.4224 37.48 24.3078 35.4885 26.918 32.1251C29.5041 28.7927 30.776 24.1988 30.776 19.056H28.776C28.776 23.8972 27.5759 28.0153 25.338 30.8989C23.1242 33.7515 19.8336 35.48 15.424 35.48V37.48ZM30.776 19.056C30.776 13.9362 29.5037 9.35425 26.9174 6.02816C24.3073 2.67138 20.4223 0.679998 15.424 0.679998V2.68C19.8337 2.68 23.1247 4.40862 25.3386 7.25583C27.5763 10.1337 28.776 14.2398 28.776 19.056H30.776ZM15.424 6.04C18.0928 6.04 20.0869 6.94642 21.6193 8.52135L23.0527 7.12664C21.1291 5.14958 18.6112 4.04 15.424 4.04V6.04ZM21.5626 7.19003L5.62664 26.63L7.17336 27.898L23.1094 8.45796L21.5626 7.19003ZM7.31301 26.8561C6.37519 24.7571 5.864 22.1187 5.864 19.056H3.864C3.864 22.3293 4.40881 25.2589 5.48699 27.6719L7.31301 26.8561ZM5.864 19.056C5.864 15.0996 6.71631 11.8235 8.31426 9.56569C9.88128 7.35154 12.2143 6.04 15.424 6.04V4.04C11.5777 4.04 8.63072 5.65646 6.68174 8.41031C4.76369 11.1205 3.864 14.8524 3.864 19.056H5.864ZM15.424 32.12C12.7003 32.12 10.6663 31.2093 9.14195 29.6003L7.69005 30.9757C9.62169 33.0147 12.1957 34.12 15.424 34.12V32.12ZM9.18936 30.922L25.1254 11.482L23.5786 10.214L7.64264 29.654L9.18936 30.922ZM23.439 11.2559C24.3768 13.3549 24.888 15.9933 24.888 19.056H26.888C26.888 15.7827 26.3432 12.8531 25.265 10.4401L23.439 11.2559ZM24.888 19.056C24.888 23.0399 24.0463 26.3293 22.4643 28.5932C20.9141 30.8116 18.6061 32.12 15.424 32.12V34.12C19.2499 34.12 22.1739 32.5004 24.1037 29.7388C26.0017 27.0227 26.888 23.2801 26.888 19.056H24.888ZM38.9264 19.92V20.92H39.7493L39.9077 20.1124L38.9264 19.92ZM37.8224 19.92L36.895 19.5458L36.3405 20.92H37.8224V19.92ZM38.9264 17.184L39.8537 17.5582L39.9005 17.4423L39.9173 17.3185L38.9264 17.184ZM50.6384 5.04L50.5383 6.03498L50.5408 6.03523L50.6384 5.04ZM60.4304 6L60.3328 6.99523L61.4304 7.10283V6H60.4304ZM60.4304 2.64H61.4304V1.73324L60.5279 1.64477L60.4304 2.64ZM50.6384 1.68L50.5376 2.67491L50.5408 2.67523L50.6384 1.68ZM34.7584 20.16C34.7584 25.7648 36.1658 30.1092 38.7563 33.0651C41.3617 36.0379 45.0533 37.48 49.3424 37.48V35.48C45.5195 35.48 42.4191 34.2101 40.2604 31.7469C38.0869 29.2668 36.7584 25.4512 36.7584 20.16H34.7584ZM49.3424 37.48C53.7545 37.48 57.4017 36.0897 59.9525 33.6438C62.5054 31.1959 63.8784 27.7682 63.8784 23.856H61.8784C61.8784 27.2878 60.6834 30.1721 58.5683 32.2002C56.4511 34.2303 53.3302 35.48 49.3424 35.48V37.48ZM63.8784 23.856C63.8784 20.0922 62.6802 16.7804 60.3954 14.4031C58.1049 12.0199 54.8067 10.664 50.7824 10.664V12.664C54.3421 12.664 57.0918 13.8521 58.9534 15.7889C60.8205 17.7316 61.8784 20.5158 61.8784 23.856H63.8784ZM50.7824 10.664C44.4028 10.664 39.0226 14.2321 37.9451 19.7276L39.9077 20.1124C40.7501 15.8159 45.066 12.664 50.7824 12.664V10.664ZM38.9264 18.92H37.8224V20.92H38.9264V18.92ZM38.7497 20.2942L39.8537 17.5582L37.999 16.8098L36.895 19.5458L38.7497 20.2942ZM39.9173 17.3185C40.3658 14.0138 41.2354 10.9889 42.8696 8.90264C44.4444 6.89214 46.8005 5.65898 50.5383 6.03498L50.7385 4.04502C46.3643 3.60501 43.3203 5.08385 41.2951 7.66936C39.3293 10.1791 38.399 13.6342 37.9355 17.0495L39.9173 17.3185ZM50.5408 6.03523L60.3328 6.99523L60.5279 5.00477L50.7359 4.04477L50.5408 6.03523ZM61.4304 6V2.64H59.4304V6H61.4304ZM60.5279 1.64477L50.7359 0.68477L50.5408 2.67523L60.3328 3.63523L60.5279 1.64477ZM50.7392 0.685092C44.9668 0.100223 40.8777 2.10137 38.2919 5.81229C35.7641 9.44003 34.7584 14.5775 34.7584 20.16H36.7584C36.7584 14.7505 37.7447 10.096 39.9328 6.9557C42.063 3.89862 45.414 2.15577 50.5376 2.6749L50.7392 0.685092ZM40.6944 24.336C40.6944 21.7417 41.7113 19.6949 43.3724 18.2816C45.0491 16.8551 47.4455 16.024 50.2544 16.024V14.024C47.0632 14.024 44.1796 14.9689 42.0764 16.7584C39.9574 18.5611 38.6944 21.1703 38.6944 24.336H40.6944ZM50.2544 16.024C52.8491 16.024 54.7372 16.8277 55.9806 18.132C57.231 19.4436 57.9424 21.3803 57.9424 23.856H59.9424C59.9424 21.0037 59.1178 18.5244 57.4282 16.752C55.7316 14.9723 53.2756 14.024 50.2544 14.024V16.024ZM57.9424 23.856C57.9424 26.6092 57.13 28.6375 55.7346 29.9818C54.3338 31.3313 52.212 32.12 49.3424 32.12V34.12C52.5687 34.12 55.247 33.2287 57.1222 31.4222C59.0027 29.6105 59.9424 27.0068 59.9424 23.856H57.9424ZM49.3424 32.12C43.7575 32.12 40.6944 28.1106 40.6944 24.336H38.6944C38.6944 29.2014 42.6392 34.12 49.3424 34.12V32.12Z" fill="white"/>
</svg>
