<svg width="24" height="24" viewBox="0 0 24 24" fill="none" xmlns="http://www.w3.org/2000/svg">
<path fill-rule="evenodd" clip-rule="evenodd" d="M9.43753 2.30039C8.06753 3.01406 6.94669 3.61795 6.94692 3.64252C6.94753 3.70591 10.235 5.37079 10.3516 5.36673C10.4047 5.36496 10.7898 5.18772 11.2072 4.97292L11.9664 4.58244L12.7955 5.00862L13.6246 5.43488L14.9824 4.82477C17.0283 3.90543 17.2408 3.80469 17.2075 3.77085C17.1633 3.72594 16.4294 3.33172 14.4385 2.28358C13.4764 1.777 12.5425 1.28031 12.3632 1.17981C12.184 1.07931 12.0128 0.998457 11.9829 1.00002C11.953 1.00159 10.8076 1.58676 9.43753 2.30039ZM3.42873 5.41196L2.00257 6.14862V9.38167C2.00257 11.1599 2.0213 12.6147 2.04427 12.6147C2.06716 12.6147 2.76883 12.3105 3.6035 11.9388L5.12109 11.2629V7.85501L5.86268 8.25904C6.43414 8.5701 7.00594 8.88053 7.57809 9.19032L8.55188 9.71756L8.9852 9.52162C9.25696 9.39854 9.52817 9.27425 9.79883 9.14878C10.008 9.05138 10.5214 8.82013 10.9397 8.6348C11.3581 8.44939 11.7453 8.26294 11.8002 8.22045C11.8732 8.164 10.9837 7.67249 8.51043 6.40241C6.6461 5.44504 5.06093 4.66477 4.98783 4.66851C4.91472 4.67225 4.21313 5.00676 3.42873 5.41196ZM17.4645 5.61883C16.4932 6.05732 15.6978 6.43361 15.6969 6.45506C15.6961 6.4765 16.2254 6.79127 16.8734 7.15445C17.5213 7.51772 18.0514 7.83435 18.0514 7.85819C18.0514 7.88199 17.4781 8.15979 16.7774 8.47565C16.0767 8.79143 14.3054 9.59133 12.8413 10.2532L7.93533 12.4708C6.70125 13.0286 5.58886 13.5315 5.46337 13.5883C2.94268 14.7294 2.24984 15.046 2.15469 15.1004C2.05902 15.1551 2.03735 15.473 2.02032 17.0686L2 18.9716L3.27533 19.6214L4.55064 20.2712L6.31905 19.4731C7.2917 19.0342 8.08745 18.6521 8.08745 18.624C8.08745 18.5959 7.90772 18.4788 7.68814 18.3636C7.46846 18.2484 7.01499 17.9935 6.68032 17.7969C6.34568 17.6003 6.01199 17.42 5.93873 17.3961C5.86549 17.3722 5.80663 17.3305 5.80783 17.3033C5.80905 17.2762 6.58777 16.9063 7.53822 16.4812C9.3843 15.6559 10.7971 15.0197 13.8301 13.6481C15.1863 13.0349 16.5427 12.4221 17.8993 11.8097C19.0916 11.2715 20.4778 10.643 20.9798 10.413L21.8925 9.99475L21.9128 8.07005L21.9332 6.14544L20.6397 5.48151C19.9283 5.11639 19.3201 4.81854 19.2883 4.81963C19.2564 4.82063 18.4357 5.18024 17.4645 5.61883ZM21.546 12.5624C21.3554 12.6555 20.9789 12.8298 20.7093 12.9497C20.4398 13.0697 19.9283 13.3005 19.5727 13.4627L18.9261 13.7576L18.9114 15.4473C18.9032 16.3766 18.869 17.1328 18.8353 17.1279C18.7588 17.1166 17.5471 16.4951 16.329 15.8424C15.4499 15.3714 15.3947 15.3527 15.1881 15.455C15.0687 15.5142 14.3549 15.8343 13.6019 16.1666C12.8489 16.4987 12.2082 16.7922 12.1781 16.8188C12.148 16.8453 13.6636 17.6667 15.546 18.6442L18.9685 20.4215L20.4306 19.6652C21.2346 19.2493 21.9183 18.8699 21.9498 18.8222C22.0207 18.7149 22.0146 12.3784 21.9436 12.3869C21.9156 12.3903 21.7366 12.4693 21.546 12.5624ZM13.4498 19.9998C13.1962 20.1088 12.9426 20.218 12.6892 20.3274C11.9237 20.6585 12.0737 20.6695 11.1631 20.2162C10.5566 19.9143 10.2952 19.8211 10.1817 19.8663C10.0966 19.9002 9.36406 20.2298 8.55371 20.5987C7.74342 20.9676 7.05234 21.2694 7.01796 21.2694C6.67799 21.2694 7.24318 21.6071 9.42417 22.7072L11.9819 23.9974L13.0581 23.4661C13.65 23.1738 14.8439 22.5886 15.7112 22.1657C16.5784 21.7426 17.2773 21.3855 17.2642 21.372C17.251 21.3586 16.5244 20.9854 15.6493 20.5428L14.0583 19.7381L13.4498 19.9998Z" fill="black"/>
</svg>
