<svg width="21" height="16" viewBox="0 0 21 16" fill="current" xmlns="http://www.w3.org/2000/svg">
<path d="M17.431 1.74364C16.156 1.16864 14.7893 0.743637 13.3602 0.50197C13.3474 0.499527 13.3343 0.501101 13.3225 0.506476C13.3107 0.511851 13.3008 0.52076 13.2943 0.53197C13.1193 0.83947 12.9243 1.2403 12.7877 1.55697C11.2719 1.3305 9.73091 1.3305 8.21516 1.55697C8.06294 1.20602 7.89128 0.863824 7.70099 0.53197C7.69454 0.520622 7.68478 0.511512 7.67302 0.505854C7.66126 0.500196 7.64805 0.498259 7.63516 0.500303C6.20682 0.74197 4.84016 1.16697 3.56432 1.7428C3.55335 1.74741 3.54404 1.75526 3.53766 1.7653C0.944323 5.5778 0.23349 9.29614 0.582656 12.9678C0.583628 12.9768 0.586419 12.9855 0.59086 12.9934C0.595302 13.0013 0.6013 13.0082 0.60849 13.0136C2.12215 14.1157 3.81044 14.9552 5.60266 15.497C5.61515 15.5008 5.62851 15.5008 5.641 15.4969C5.65349 15.4931 5.66452 15.4855 5.67266 15.4753C6.05766 14.9586 6.40099 14.4128 6.69432 13.8395C6.71182 13.8061 6.69516 13.7661 6.66016 13.7528C6.12183 13.5501 5.60023 13.3054 5.10016 13.0211C5.09117 13.016 5.0836 13.0087 5.07812 13C5.07264 12.9912 5.06943 12.9812 5.06877 12.9709C5.06811 12.9605 5.07002 12.9502 5.07433 12.9408C5.07865 12.9314 5.08523 12.9232 5.09349 12.917C5.19849 12.8395 5.30349 12.7586 5.40349 12.6778C5.41249 12.6705 5.42333 12.6659 5.43481 12.6644C5.44629 12.663 5.45795 12.6647 5.46849 12.6695C8.74099 14.1395 12.2852 14.1395 15.5193 12.6695C15.5299 12.6644 15.5417 12.6625 15.5533 12.6638C15.565 12.6651 15.576 12.6697 15.5852 12.677C15.6852 12.7586 15.7893 12.8395 15.8952 12.917C15.9035 12.9231 15.9102 12.9311 15.9146 12.9405C15.9191 12.9498 15.9212 12.9601 15.9207 12.9704C15.9202 12.9807 15.9171 12.9908 15.9118 12.9996C15.9065 13.0085 15.899 13.0159 15.8902 13.0211C15.3918 13.3078 14.8735 13.5503 14.3293 13.752C14.321 13.755 14.3134 13.7598 14.307 13.766C14.3006 13.7722 14.2957 13.7797 14.2924 13.788C14.2892 13.7963 14.2878 13.8051 14.2882 13.814C14.2887 13.8229 14.2911 13.8316 14.2952 13.8395C14.5952 14.412 14.9385 14.957 15.316 15.4745C15.3238 15.4851 15.3348 15.493 15.3473 15.4972C15.3598 15.5014 15.3733 15.5016 15.386 15.4978C17.1813 14.9575 18.8723 14.1176 20.3877 13.0136C20.3951 13.0085 20.4013 13.0018 20.4059 12.994C20.4105 12.9863 20.4133 12.9776 20.4143 12.9686C20.831 8.72364 19.716 5.0353 17.4568 1.76697C17.4513 1.75635 17.4421 1.74807 17.431 1.74364ZM7.18349 10.732C6.19849 10.732 5.38599 9.84114 5.38599 8.74864C5.38599 7.6553 6.18266 6.7653 7.18349 6.7653C8.19182 6.7653 8.99682 7.6628 8.98099 8.74864C8.98099 9.84197 8.18432 10.732 7.18349 10.732ZM13.8293 10.732C12.8435 10.732 12.0318 9.84114 12.0318 8.74864C12.0318 7.6553 12.8277 6.7653 13.8293 6.7653C14.8377 6.7653 15.6427 7.6628 15.6268 8.74864C15.6268 9.84197 14.8385 10.732 13.8293 10.732Z" fill="black"/>
</svg>
