<svg width="17" height="16" viewBox="0 0 17 16" fill="current" xmlns="http://www.w3.org/2000/svg">
<path d="M8.50009 5.39658C7.0665 5.39658 5.89658 6.5665 5.89658 8.00009C5.89658 9.43368 7.0665 10.6036 8.50009 10.6036C9.93369 10.6036 11.1036 9.43368 11.1036 8.00009C11.1036 6.5665 9.93369 5.39658 8.50009 5.39658ZM16.3087 8.00009C16.3087 6.92197 16.3185 5.85361 16.2579 4.77744C16.1974 3.52744 15.9122 2.41806 14.9981 1.504C14.0821 0.587983 12.9747 0.30478 11.7247 0.244233C10.6466 0.183686 9.57822 0.193452 8.50205 0.193452C7.42392 0.193452 6.35556 0.183686 5.27939 0.244233C4.02939 0.30478 2.92002 0.589936 2.00595 1.504C1.08994 2.42001 0.806733 3.52744 0.746186 4.77744C0.68564 5.85556 0.695405 6.92392 0.695405 8.00009C0.695405 9.07626 0.68564 10.1466 0.746186 11.2227C0.806733 12.4727 1.09189 13.5821 2.00595 14.4962C2.92197 15.4122 4.02939 15.6954 5.27939 15.7559C6.35752 15.8165 7.42588 15.8067 8.50205 15.8067C9.58017 15.8067 10.6485 15.8165 11.7247 15.7559C12.9747 15.6954 14.0841 15.4102 14.9981 14.4962C15.9142 13.5802 16.1974 12.4727 16.2579 11.2227C16.3204 10.1466 16.3087 9.07822 16.3087 8.00009ZM8.50009 12.0059C6.2833 12.0059 4.49423 10.2169 4.49423 8.00009C4.49423 5.78329 6.2833 3.99423 8.50009 3.99423C10.7169 3.99423 12.506 5.78329 12.506 8.00009C12.506 10.2169 10.7169 12.0059 8.50009 12.0059ZM12.67 4.76572C12.1524 4.76572 11.7345 4.34775 11.7345 3.83017C11.7345 3.31259 12.1524 2.89462 12.67 2.89462C13.1876 2.89462 13.6056 3.31259 13.6056 3.83017C13.6057 3.95307 13.5816 4.0748 13.5347 4.18837C13.4877 4.30195 13.4188 4.40514 13.3319 4.49205C13.245 4.57895 13.1418 4.64786 13.0282 4.69482C12.9146 4.74178 12.7929 4.76587 12.67 4.76572Z" fill="black"/>
</svg>
