<svg width="22" height="17" viewBox="0 0 22 17" fill="current" xmlns="http://www.w3.org/2000/svg">
<path d="M0.458333 15.4167H21.5417C21.7956 15.4167 22 15.6211 22 15.875C22 16.1289 21.7956 16.3333 21.5417 16.3333H0.458333C0.204417 16.3333 0 16.1289 0 15.875C0 15.6211 0.204417 15.4167 0.458333 15.4167ZM0.458333 8.08333H21.5417C21.7956 8.08333 22 8.28775 22 8.54167C22 8.79558 21.7956 9 21.5417 9H0.458333C0.204417 9 0 8.79558 0 8.54167C0 8.28775 0.204417 8.08333 0.458333 8.08333ZM0.458333 0.75H21.5417C21.7956 0.75 22 0.954417 22 1.20833C22 1.46225 21.7956 1.66667 21.5417 1.66667H0.458333C0.204417 1.66667 0 1.46225 0 1.20833C0 0.954417 0.204417 0.75 0.458333 0.75Z" fill="black"/>
</svg>
