<svg width="22" height="22" viewBox="0 0 22 22" fill="current" xmlns="http://www.w3.org/2000/svg">
<g clip-path="url(#clip0_46_253)">
<path d="M21.8606 0.131138C21.6791 -0.0448618 21.3885 -0.0402784 21.2125 0.140305L12.0504 9.30331C11.6397 9.70206 12.286 10.363 12.6985 9.95047L21.8606 0.788388C22.0466 0.608722 22.0466 0.311722 21.8606 0.131138ZM9.9494 12.0414C9.7679 11.8654 9.47732 11.87 9.30132 12.0506L0.137402 21.2145C-0.282432 21.6233 0.372068 22.2888 0.786402 21.8626L9.9494 12.6996C10.1355 12.519 10.1355 12.2211 9.9494 12.0414ZM0.786402 0.141222C0.384902 -0.262112 -0.275098 0.372222 0.137402 0.788388L21.2134 21.8626C21.6351 22.2916 22.2877 21.638 21.8615 21.2136L0.786402 0.141222Z" fill="black"/>
</g>
<defs>
<clipPath id="clip0_46_253">
<rect width="22" height="22" fill="white"/>
</clipPath>
</defs>
</svg>
