<svg width="19" height="20" viewBox="0 0 19 20" fill="current" xmlns="http://www.w3.org/2000/svg">
<path d="M9.5 0.5C4.2541 0.5 0 4.7541 0 10C0 15.2459 4.2541 19.5 9.5 19.5C14.7459 19.5 19 15.2459 19 10C19 4.7541 14.7478 0.5 9.5 0.5ZM4.6873 10.3192L4.7272 10.2546L7.1991 6.3881C7.2352 6.333 7.3207 6.3387 7.3473 6.3995C7.7596 7.3248 8.1168 8.4762 7.9496 9.1925C7.8793 9.487 7.6836 9.886 7.4632 10.2546C7.4347 10.3078 7.4043 10.361 7.3701 10.4123C7.3549 10.4351 7.3283 10.4484 7.2998 10.4484H4.7595C4.6911 10.4484 4.6512 10.3743 4.6873 10.3192ZM15.7016 11.6492C15.7016 11.6853 15.6807 11.7157 15.6503 11.729C15.4584 11.8107 14.8029 12.1128 14.5312 12.4909C13.8358 13.458 13.3057 14.8412 12.1182 14.8412H7.1668C5.4112 14.8412 3.99 13.4143 3.99 11.653V11.596C3.99 11.5504 4.028 11.5124 4.0755 11.5124H6.8343C6.8894 11.5124 6.9293 11.5618 6.9255 11.6169C6.9046 11.7955 6.9388 11.9798 7.0243 12.147C7.1877 12.4795 7.5278 12.6866 7.8945 12.6866H9.2606V11.6207H7.9097C7.8413 11.6207 7.7995 11.5409 7.8394 11.4839C7.8546 11.4611 7.8698 11.4383 7.8888 11.4117C8.0161 11.2293 8.1985 10.9481 8.3809 10.627C8.5044 10.4104 8.6241 10.1786 8.721 9.9468C8.74 9.905 8.7552 9.8613 8.7723 9.8195C8.7989 9.7454 8.8255 9.6751 8.8445 9.6067C8.8635 9.5478 8.8806 9.487 8.8958 9.43C8.9414 9.2324 8.9604 9.0234 8.9604 8.8068C8.9604 8.7213 8.9566 8.632 8.949 8.5484C8.9452 8.4553 8.9338 8.3622 8.9224 8.2691C8.9148 8.1874 8.8996 8.1057 8.8844 8.0221C8.8635 7.8986 8.8369 7.7751 8.8065 7.6516L8.7951 7.6041C8.7723 7.5186 8.7514 7.4388 8.7248 7.3533C8.6469 7.0873 8.5595 6.827 8.4645 6.5838C8.4303 6.4869 8.3923 6.3938 8.3524 6.3026C8.2954 6.162 8.2365 6.0347 8.1833 5.915C8.1548 5.8599 8.132 5.8105 8.1092 5.7592C8.0826 5.7022 8.056 5.6452 8.0275 5.5901C8.0085 5.5483 7.9857 5.5084 7.9705 5.4704L7.8033 5.1626C7.7805 5.1208 7.8185 5.0695 7.8641 5.0828L8.9091 5.3659H8.9129H8.9167L9.0535 5.4058L9.2055 5.4476L9.2606 5.4628V4.8434C9.2606 4.5432 9.5 4.3 9.7983 4.3C9.9465 4.3 10.0814 4.3608 10.1764 4.4596C10.2733 4.5584 10.3341 4.6933 10.3341 4.8434V5.7649L10.4462 5.7953C10.4538 5.7991 10.4633 5.8029 10.4709 5.8086C10.4975 5.8276 10.5374 5.858 10.5868 5.896C10.6267 5.9264 10.6685 5.9644 10.7179 6.0043C10.8186 6.086 10.9402 6.1905 11.0713 6.3102C11.1055 6.3406 11.1397 6.371 11.172 6.4033C11.3411 6.561 11.5311 6.7453 11.7135 6.9505C11.7648 7.0094 11.8142 7.0664 11.8655 7.1291C11.9149 7.1918 11.97 7.2526 12.0156 7.3134C12.0783 7.3951 12.1429 7.4806 12.2018 7.5699C12.2284 7.6117 12.2607 7.6554 12.2854 7.6972C12.3614 7.8093 12.426 7.9252 12.4887 8.0411C12.5153 8.0943 12.5419 8.1532 12.5647 8.2102C12.635 8.366 12.6901 8.5237 12.7243 8.6833C12.7357 8.7175 12.7433 8.7536 12.7471 8.7878V8.7954C12.7585 8.841 12.7623 8.8904 12.7661 8.9417C12.7813 9.1032 12.7737 9.2666 12.7395 9.43C12.7243 9.4984 12.7053 9.563 12.6825 9.6333C12.6578 9.6998 12.635 9.7682 12.6046 9.8347C12.5457 9.9696 12.4773 10.1064 12.3956 10.2318C12.369 10.2793 12.3367 10.3287 12.3063 10.3762C12.2721 10.4256 12.236 10.4731 12.2056 10.5187C12.1619 10.5776 12.1163 10.6384 12.0688 10.6935C12.027 10.7505 11.9852 10.8075 11.9377 10.8588C11.8731 10.9367 11.8104 11.0089 11.7439 11.0792C11.7059 11.1248 11.6641 11.1723 11.6204 11.2141C11.5786 11.2616 11.5349 11.3034 11.4969 11.3414C11.4304 11.4079 11.3772 11.4573 11.3316 11.501L11.2233 11.5979C11.2081 11.6131 11.1872 11.6207 11.1663 11.6207H10.3341V12.6866H11.381C11.6147 12.6866 11.837 12.6049 12.0175 12.451C12.0783 12.3978 12.3462 12.166 12.6635 11.8164C12.6749 11.8031 12.6882 11.7955 12.7034 11.7917L15.5933 10.9557C15.6484 10.9405 15.7016 10.9804 15.7016 11.0374V11.6492Z" fill="black"/>
</svg>
