<svg width="24" height="28" viewBox="0 0 24 28" fill="none" xmlns="http://www.w3.org/2000/svg">
<g clip-path="url(#clip0_10_409)">
<path d="M9.4121 6.2888C9.11264 6.24602 9.09838 6.23176 9.24098 6.2175C9.51192 6.17472 10.1394 6.23176 10.5814 6.33158C11.6082 6.574 12.5351 7.20145 13.5191 8.29949L13.7757 8.59896L14.1465 8.54192C15.7294 8.28523 17.3551 8.48488 18.7098 9.11233C19.0805 9.28345 19.6652 9.6257 19.7365 9.71126C19.765 9.73978 19.8078 9.92516 19.8363 10.1105C19.9362 10.7808 19.8934 11.2799 19.6795 11.6649C19.5654 11.8788 19.5654 11.9359 19.6367 12.1212C19.6937 12.2638 19.8649 12.3637 20.0217 12.3637C20.364 12.3637 20.7205 11.8218 20.8916 11.066L20.9629 10.7665L21.0912 10.9091C21.8185 11.722 22.3889 12.8485 22.4745 13.6471L22.503 13.861L22.3747 13.6756C22.1608 13.3476 21.9611 13.1337 21.6902 12.9483C21.2053 12.6203 20.692 12.5205 19.3372 12.4492C18.1109 12.3779 17.4121 12.2781 16.7276 12.0499C15.5583 11.6649 14.9593 11.1658 13.5761 9.32623C12.9629 8.5134 12.5779 8.07133 12.1928 7.70056C11.3515 6.88773 10.5101 6.45992 9.4121 6.2888Z" fill="#3835C2"/>
<path d="M20.0353 8.09979C20.0639 7.5579 20.1352 7.20139 20.292 6.87341C20.3491 6.74506 20.4061 6.63098 20.4204 6.63098C20.4346 6.63098 20.4061 6.7308 20.3633 6.84489C20.2492 7.15861 20.235 7.60068 20.3063 8.09979C20.4061 8.7415 20.4489 8.82706 21.1334 9.52581C21.4471 9.8538 21.8179 10.2673 21.9605 10.4385L22.2029 10.7522L21.9605 10.524C21.661 10.2388 20.9765 9.69694 20.8197 9.62563C20.7198 9.56859 20.7056 9.56859 20.6343 9.63989C20.5772 9.69693 20.563 9.7825 20.563 10.196C20.5487 10.8378 20.4631 11.237 20.2492 11.6506C20.1352 11.8645 20.1209 11.8217 20.2207 11.5793C20.292 11.3939 20.3063 11.3083 20.3063 10.6952C20.3063 9.45451 20.1637 9.15505 19.2938 8.65594C19.0799 8.52759 18.7091 8.34221 18.4952 8.24239C18.2671 8.14257 18.0959 8.05701 18.1102 8.05701C18.1387 8.02849 18.9801 8.27091 19.3081 8.41351C19.8072 8.61316 19.8927 8.62742 19.9498 8.61316C19.9926 8.57038 20.0211 8.45629 20.0353 8.09979Z" fill="#3835C2"/>
<path d="M9.9962 10.2245C9.39727 9.39745 9.01224 8.11403 9.09781 7.1586L9.12633 6.85913L9.26893 6.88765C9.52561 6.93043 9.96768 7.10156 10.1816 7.2299C10.752 7.57214 11.0087 8.04273 11.2511 9.21207C11.3224 9.55432 11.4222 9.9536 11.465 10.0819C11.5363 10.2959 11.8073 10.795 12.0354 11.1087C12.1923 11.3368 12.0925 11.4509 11.736 11.4224C11.1941 11.3654 10.4668 10.8663 9.9962 10.2245Z" fill="#3835C2"/>
<path d="M19.3081 16.4278C16.4845 15.287 15.4863 14.303 15.4863 12.6346C15.4863 12.3921 15.5006 12.1925 15.5006 12.1925C15.5148 12.1925 15.6147 12.2781 15.743 12.3779C16.3134 12.8342 16.9551 13.0339 18.7377 13.2905C19.7787 13.4474 20.3776 13.5615 20.9195 13.7469C22.645 14.3173 23.7145 15.4866 23.9712 17.0695C24.0425 17.5258 23.9997 18.3957 23.8856 18.852C23.7858 19.2085 23.5006 19.8645 23.4293 19.8788C23.415 19.8788 23.3865 19.8075 23.3865 19.6934C23.358 19.0945 23.0585 18.5241 22.5594 18.082C21.9605 17.5686 21.1904 17.1836 19.3081 16.4278Z" fill="#3835C2"/>
<path d="M17.3119 16.8984C17.2834 16.6845 17.2121 16.4136 17.1693 16.2995L17.098 16.0856L17.2264 16.2424C17.4117 16.4563 17.5543 16.713 17.6827 17.0695C17.7825 17.3405 17.7825 17.426 17.7825 17.8681C17.7825 18.2959 17.7682 18.3957 17.6827 18.6382C17.5401 19.0232 17.369 19.2941 17.0838 19.5936C16.5704 20.1212 15.9002 20.4064 14.9447 20.5348C14.7736 20.549 14.2887 20.5918 13.8609 20.6203C12.7914 20.6774 12.0784 20.7915 11.4367 21.0196C11.3511 21.0481 11.2656 21.0767 11.2513 21.0624C11.2228 21.0339 11.6649 20.7772 12.0214 20.6061C12.5205 20.3636 13.0338 20.2353 14.1604 20.0357C14.7166 19.9501 15.287 19.836 15.4296 19.779C16.8413 19.3369 17.5401 18.2389 17.3119 16.8984Z" fill="#3835C2"/>
<path d="M18.6095 19.1943C18.2388 18.3815 18.1532 17.6115 18.3529 16.8842C18.3814 16.8129 18.4099 16.7416 18.4384 16.7416C18.4669 16.7416 18.5525 16.7844 18.6381 16.8414C18.8092 16.9555 19.1657 17.1551 20.0784 17.6542C21.2334 18.2817 21.8894 18.7665 22.3457 19.3227C22.745 19.8075 22.9874 20.3637 23.1015 21.0482C23.1728 21.4332 23.13 22.3601 23.0302 22.7451C22.7165 23.9573 22.0035 24.927 20.9625 25.4831C20.8056 25.5687 20.6773 25.6257 20.663 25.6257C20.6488 25.6257 20.7058 25.4831 20.7914 25.312C21.1336 24.5847 21.1764 23.886 20.9197 23.1016C20.7628 22.6168 20.4349 22.0321 19.7789 21.0482C18.9946 19.9074 18.8092 19.6079 18.6095 19.1943Z" fill="#3835C2"/>
<path d="M7.98599 23.558C9.04125 22.6739 10.3389 22.0464 11.5368 21.8468C12.0502 21.7612 12.9058 21.7897 13.3764 21.9181C14.1322 22.1177 14.8166 22.5455 15.1732 23.0731C15.5154 23.5865 15.6723 24.0286 15.8291 25.0125C15.8862 25.3976 15.9575 25.7968 15.9717 25.8824C16.0858 26.3958 16.314 26.7951 16.5992 27.009C17.0412 27.337 17.8113 27.3512 18.5671 27.066C18.6954 27.0232 18.8095 26.9805 18.8095 26.9947C18.838 27.0232 18.453 27.2799 18.1963 27.4083C17.8398 27.5936 17.5546 27.6507 17.1696 27.6507C16.4851 27.6507 15.9004 27.2942 15.4298 26.5812C15.33 26.4386 15.1304 26.025 14.9593 25.64C14.4601 24.4849 14.2035 24.1427 13.6188 23.7576C13.1054 23.4296 12.4494 23.3583 11.9503 23.6008C11.2944 23.9145 11.1232 24.7559 11.5796 25.2692C11.765 25.4831 12.1072 25.6542 12.3924 25.697C12.92 25.7683 13.3764 25.3548 13.3764 24.8272C13.3764 24.4849 13.248 24.2853 12.9058 24.1284C12.4494 23.9288 11.9503 24.1569 11.9646 24.599C11.9646 24.7844 12.0502 24.8985 12.2355 24.984C12.3496 25.0411 12.3496 25.0411 12.2641 25.0268C11.8505 24.9412 11.7507 24.4279 12.0787 24.0999C12.478 23.7006 13.3193 23.8717 13.6045 24.4279C13.7186 24.656 13.7329 25.1124 13.633 25.3976C13.3906 26.025 12.7061 26.353 12.0074 26.1676C11.5368 26.0393 11.3371 25.9109 10.7667 25.3263C9.76852 24.2995 9.38349 24.0999 7.95747 23.886L7.68652 23.8432L7.98599 23.558Z" fill="#3835C2"/>
<path fill-rule="evenodd" clip-rule="evenodd" d="M0.484506 0.613191C3.80714 4.64884 8.92657 10.9234 9.18326 11.2656C9.39716 11.5508 9.3116 11.8217 8.95509 12.0214C8.75545 12.1355 8.3419 12.2496 8.14226 12.2496C7.9141 12.2496 7.64315 12.1355 7.45777 11.9501C7.32943 11.8217 6.77328 11.0089 5.51837 9.05526C4.56294 7.55793 3.7501 6.31729 3.73584 6.30303C3.6788 6.27451 3.6788 6.27451 5.41855 9.38324C6.51659 11.3369 6.8731 12.0357 6.8731 12.1212C6.8731 12.3066 6.81606 12.4064 6.58789 12.6631C6.20287 13.0909 6.03174 13.5758 5.9034 14.5882C5.7608 15.7148 5.37577 16.5134 4.27773 17.8681C3.63602 18.6667 3.5362 18.8093 3.37934 19.1373C3.17969 19.5365 3.12265 19.7647 3.09413 20.2781C3.06561 20.82 3.12265 21.1622 3.27952 21.6756C3.42212 22.1319 3.57898 22.4314 3.96401 23.016C4.29199 23.5294 4.49164 23.9144 4.49164 24.057C4.49164 24.1711 4.52016 24.1711 5.03353 24.057C6.25991 23.7718 7.27238 23.287 7.82853 22.6881C8.17078 22.3173 8.25634 22.1176 8.25634 21.6043C8.25634 21.2763 8.24208 21.205 8.15652 21.0053C8.01392 20.6916 7.74297 20.4349 7.1583 20.0357C6.38825 19.508 6.06026 19.0802 5.9747 18.5098C5.9034 18.025 5.98896 17.697 6.41677 16.7986C6.85884 15.8717 6.97292 15.4866 7.04422 14.5455C7.087 13.9465 7.1583 13.7041 7.32943 13.5187C7.51481 13.3191 7.67167 13.2478 8.11374 13.1907C8.84101 13.0909 9.3116 12.9055 9.68237 12.549C10.0104 12.2496 10.153 11.9501 10.1672 11.508L10.1815 11.18L9.99609 10.9804C9.32586 10.2103 0.0424385 0 -0.00034226 0C-0.0146025 0 0.213561 0.270945 0.484506 0.613191ZM4.8624 20.8913C5.01927 20.6203 4.9337 20.2781 4.67702 20.107C4.4346 19.9501 4.06383 20.0214 4.06383 20.2353C4.06383 20.2923 4.09235 20.3494 4.17791 20.3779C4.30625 20.4492 4.32051 20.5205 4.22069 20.6774C4.12087 20.8342 4.12087 20.9768 4.24921 21.0766C4.44886 21.2335 4.7198 21.1479 4.8624 20.8913Z" fill="#3835C2"/>
<path fill-rule="evenodd" clip-rule="evenodd" d="M10.638 13.3903C10.2957 13.4901 9.96776 13.8609 9.86794 14.2317C9.8109 14.4598 9.83942 14.8734 9.93924 15.0017C10.0961 15.2014 10.2387 15.2584 10.638 15.2584C11.4223 15.2584 12.0925 14.9162 12.1638 14.5026C12.2351 14.1604 11.9357 13.6898 11.5221 13.4759C11.3082 13.3618 10.8662 13.319 10.638 13.3903ZM11.5506 14.1033C11.6647 13.9322 11.622 13.7468 11.408 13.6185C11.023 13.3761 10.4383 13.5757 10.4383 13.9465C10.4383 14.1319 10.7378 14.3315 11.023 14.3315C11.2084 14.3315 11.4651 14.2174 11.5506 14.1033Z" fill="#3835C2"/>
</g>
<defs>
<clipPath id="clip0_10_409">
<rect width="24" height="27.6364" fill="white"/>
</clipPath>
</defs>
</svg>
