<svg width="18" height="16" viewBox="0 0 18 16" fill="none" xmlns="http://www.w3.org/2000/svg">
<path d="M16.5834 9.08317H3.73508L7.66758 13.8065C7.75863 13.916 7.82722 14.0425 7.86941 14.1785C7.91161 14.3146 7.9266 14.4576 7.91352 14.5994C7.88711 14.8859 7.74798 15.1501 7.52675 15.334C7.30552 15.5179 7.02029 15.6064 6.73383 15.5799C6.44737 15.5535 6.18313 15.4144 5.99925 15.1932L0.582584 8.69317C0.546141 8.64147 0.513554 8.58716 0.485085 8.53067C0.485085 8.47651 0.430918 8.44401 0.40925 8.38984C0.360147 8.26562 0.334438 8.1334 0.333418 7.99984C0.334438 7.86628 0.360147 7.73405 0.40925 7.60984C0.40925 7.55567 0.463417 7.52317 0.485085 7.46901C0.513554 7.41252 0.546141 7.35821 0.582584 7.30651L5.99925 0.806506C6.10111 0.684216 6.22866 0.585871 6.37283 0.518465C6.51701 0.451059 6.67426 0.416248 6.83342 0.416506C7.08654 0.416011 7.33185 0.504168 7.52675 0.665673C7.63645 0.756617 7.72712 0.86831 7.79359 0.994352C7.86005 1.1204 7.901 1.25831 7.91408 1.4002C7.92716 1.54209 7.91212 1.68517 7.86983 1.82124C7.82753 1.95731 7.7588 2.0837 7.66758 2.19317L3.73508 6.91651H16.5834C16.8707 6.91651 17.1463 7.03064 17.3494 7.23381C17.5526 7.43697 17.6667 7.71252 17.6667 7.99984C17.6667 8.28716 17.5526 8.56271 17.3494 8.76587C17.1463 8.96904 16.8707 9.08317 16.5834 9.08317Z" fill="white"/>
</svg>
