<svg width="18" height="16" viewBox="0 0 18 16" fill="none" xmlns="http://www.w3.org/2000/svg">
<path d="M1.41671 9.08317H14.265L10.3325 13.8065C10.2415 13.916 10.1729 14.0425 10.1307 14.1785C10.0885 14.3146 10.0735 14.4576 10.0866 14.5994C10.113 14.8859 10.2521 15.1501 10.4734 15.334C10.6946 15.5179 10.9798 15.6064 11.2663 15.5799C11.5528 15.5535 11.817 15.4144 12.0009 15.1932L17.4175 8.69317C17.454 8.64147 17.4866 8.58716 17.515 8.53067C17.515 8.47651 17.5692 8.44401 17.5909 8.38984C17.64 8.26562 17.6657 8.1334 17.6667 7.99984C17.6657 7.86628 17.64 7.73405 17.5909 7.60984C17.5909 7.55567 17.5367 7.52317 17.515 7.46901C17.4866 7.41252 17.454 7.35821 17.4175 7.30651L12.0009 0.806506C11.899 0.684216 11.7715 0.585871 11.6273 0.518465C11.4831 0.451059 11.3259 0.416248 11.1667 0.416506C10.9136 0.416011 10.6683 0.504168 10.4734 0.665673C10.3637 0.756617 10.273 0.86831 10.2065 0.994352C10.1401 1.1204 10.0991 1.25831 10.086 1.4002C10.073 1.54209 10.088 1.68517 10.1303 1.82124C10.1726 1.95731 10.2413 2.0837 10.3325 2.19317L14.265 6.91651H1.41671C1.12939 6.91651 0.85384 7.03064 0.650675 7.23381C0.447511 7.43697 0.333374 7.71252 0.333374 7.99984C0.333374 8.28716 0.447511 8.56271 0.650675 8.76587C0.85384 8.96904 1.12939 9.08317 1.41671 9.08317Z" fill="white"/>
</svg>
