<svg width="128" height="128" viewBox="0 0 128 128" fill="none" xmlns="http://www.w3.org/2000/svg">
<path d="M64 128C99.3462 128 128 99.3462 128 64C128 28.6538 99.3462 0 64 0C28.6538 0 0 28.6538 0 64C0 99.3462 28.6538 128 64 128Z" fill="white"/>
<path d="M35.6517 81.3675H24.667V41.5237H35.6517V60.5049C39.0458 57.9039 42.2093 55.0171 45.1423 51.8444C48.0937 48.6716 50.63 45.2222 52.7513 41.4961H60.2497C58.2944 44.8348 56.0532 47.9522 53.5261 50.8483C50.9989 53.7443 48.2505 56.4282 45.2806 58.9L61.1905 81.3675H49.7354L37.7546 64.4339C37.4041 64.6737 37.0537 64.9042 36.7031 65.1255C36.3711 65.3468 36.0207 65.5682 35.6517 65.7895V81.3675ZM103.552 62.3034V62.8291C103.515 64.3785 103.349 65.9835 103.054 67.6435C102.778 69.3035 102.381 70.9642 101.864 72.6242C101.348 74.2842 100.73 75.9262 100.01 77.5488C99.2909 79.1722 98.4796 80.7222 97.5756 82.1975C96.6903 83.6915 95.7309 85.0841 94.6983 86.3755C93.6649 87.6855 92.5769 88.8381 91.4329 89.8341L87.3103 87.4548C87.9556 86.3661 88.5369 85.1768 89.0536 83.8855C89.5883 82.6128 90.0683 81.2755 90.4923 79.8735C90.9163 78.4715 91.2763 77.0328 91.5716 75.5568C91.8849 74.0815 92.1429 72.6148 92.3463 71.1575C92.5489 69.7001 92.6963 68.2708 92.7889 66.8688C92.8996 65.4481 92.9549 64.1019 92.9549 62.8291C92.9549 61.8329 92.9456 60.7077 92.9269 59.4534C92.9269 58.1806 92.8536 56.8894 92.7056 55.5797C92.5769 54.27 92.3556 52.9973 92.0416 51.7613C91.7283 50.507 91.2576 49.391 90.6303 48.4134C90.0216 47.4358 89.2289 46.6517 88.2509 46.0615C87.2916 45.4712 86.0929 45.1761 84.6543 45.1761C83.3809 45.1761 82.2836 45.3974 81.3616 45.8401C80.4576 46.2644 79.6829 46.8455 79.0369 47.5833C78.4103 48.3027 77.9029 49.142 77.5156 50.1012C77.1463 51.0604 76.8516 52.0749 76.6296 53.1448C76.4269 54.1963 76.2889 55.2661 76.2149 56.3545C76.1596 57.4243 76.1316 58.4389 76.1316 59.3981V67.1175H88.0576V71.6835H76.1316V81.3675H65.1472V61.1136C65.1472 58.2176 65.6083 55.5244 66.5309 53.0341C67.4529 50.5439 68.7536 48.3857 70.4323 46.5596C72.1289 44.715 74.1583 43.2761 76.5189 42.2431C78.8989 41.1917 81.5456 40.666 84.4603 40.666C86.4343 40.666 88.2789 40.9519 89.9943 41.5237C91.7283 42.0771 93.3049 42.8519 94.7256 43.848C96.1463 44.8256 97.4096 45.9969 98.5163 47.3619C99.6416 48.7085 100.573 50.1842 101.311 51.789C102.067 53.3939 102.639 55.0909 103.026 56.8801C103.414 58.6695 103.589 60.4772 103.552 62.3034Z" fill="#770207"/>
</svg>
