<svg width="64" height="64" viewBox="0 0 64 64" fill="none" xmlns="http://www.w3.org/2000/svg">
<path d="M32 64C49.6731 64 64 49.6731 64 32C64 14.3269 49.6731 0 32 0C14.3269 0 0 14.3269 0 32C0 49.6731 14.3269 64 32 64Z" fill="white"/>
<path d="M17.8254 40.6847H12.333V20.7629H17.8254V30.2534C19.5224 28.953 21.1042 27.5095 22.5706 25.9232C24.0463 24.3368 25.3145 22.6121 26.3752 20.749H30.1244C29.1467 22.4184 28.0261 23.9771 26.7625 25.4251C25.499 26.8732 24.1247 28.2151 22.6398 29.451L30.5947 40.6847H24.8672L18.8768 32.2179C18.7016 32.3378 18.5263 32.4531 18.3511 32.5637C18.1851 32.6744 18.0098 32.7851 17.8254 32.8957V40.6847ZM51.7756 31.1527V31.4155C51.757 32.1903 51.674 32.9927 51.5266 33.8227C51.3883 34.6527 51.19 35.4831 50.9316 36.3131C50.6733 37.1431 50.3643 37.9641 50.0046 38.7754C49.645 39.5871 49.2393 40.3621 48.7873 41.0997C48.3446 41.8467 47.865 42.543 47.3486 43.1887C46.832 43.8437 46.288 44.4201 45.716 44.9181L43.6546 43.7284C43.9773 43.1841 44.268 42.5894 44.5263 41.9437C44.7936 41.3074 45.0336 40.6387 45.2456 39.9377C45.4576 39.2367 45.6376 38.5174 45.7853 37.7794C45.942 37.0417 46.071 36.3084 46.1726 35.5797C46.274 34.8511 46.3476 34.1364 46.394 33.4354C46.4493 32.7251 46.477 32.0519 46.477 31.4155C46.477 30.9175 46.4723 30.3549 46.463 29.7277C46.463 29.0913 46.4263 28.4457 46.3523 27.7909C46.288 27.136 46.1773 26.4996 46.0203 25.8817C45.8636 25.2545 45.6283 24.6965 45.3146 24.2077C45.0103 23.7189 44.614 23.3269 44.125 23.0317C43.6453 22.7366 43.046 22.589 42.3266 22.589C41.69 22.589 41.1413 22.6997 40.6803 22.9211C40.2283 23.1332 39.841 23.4237 39.518 23.7926C39.2046 24.1523 38.951 24.572 38.7573 25.0516C38.5726 25.5312 38.4253 26.0385 38.3143 26.5734C38.213 27.0991 38.144 27.6341 38.107 28.1782C38.0793 28.7132 38.0653 29.2204 38.0653 29.7V33.5597H44.0283V35.8427H38.0653V40.6847H32.5731V30.5578C32.5731 29.1098 32.8037 27.7632 33.265 26.5181C33.726 25.2729 34.3763 24.1938 35.2156 23.2808C36.064 22.3585 37.0786 21.6391 38.259 21.1226C39.449 20.5968 40.7723 20.334 42.2296 20.334C43.2166 20.334 44.139 20.4769 44.9966 20.7629C45.8636 21.0396 46.652 21.4269 47.3623 21.925C48.0726 22.4138 48.7043 22.9995 49.2576 23.682C49.8203 24.3553 50.286 25.0931 50.655 25.8955C51.033 26.6979 51.319 27.5464 51.5126 28.4411C51.7063 29.3357 51.794 30.2396 51.7756 31.1527Z" fill="#770207"/>
</svg>
