<svg width="32" height="32" viewBox="0 0 32 32" fill="none" xmlns="http://www.w3.org/2000/svg">
<path d="M16 32C24.8366 32 32 24.8366 32 16C32 7.16344 24.8366 0 16 0C7.16344 0 0 7.16344 0 16C0 24.8366 7.16344 32 16 32Z" fill="white"/>
<path d="M8.91318 20.3414H6.16699V10.3804H8.91318V15.1257C9.76169 14.4755 10.5526 13.7538 11.2858 12.9606C12.0237 12.1674 12.6577 11.3051 13.1881 10.3735H15.0627C14.5738 11.2082 14.0135 11.9876 13.3818 12.7116C12.75 13.4356 12.0629 14.1066 11.3204 14.7245L15.2979 20.3414H12.4341L9.43889 16.108C9.35128 16.1679 9.26366 16.2255 9.17603 16.2809C9.09303 16.3362 9.00541 16.3915 8.91318 16.4469V20.3414ZM25.8883 15.5753V15.7068C25.879 16.0941 25.8375 16.4954 25.7638 16.9104C25.6946 17.3254 25.5955 17.7405 25.4663 18.1555C25.3371 18.5705 25.1826 18.981 25.0028 19.3867C24.823 19.7925 24.6201 20.18 24.3941 20.5489C24.1728 20.9224 23.933 21.2705 23.6748 21.5934C23.4165 21.9209 23.1445 22.209 22.8585 22.458L21.8278 21.8632C21.9891 21.591 22.1345 21.2937 22.2636 20.9709C22.3973 20.6527 22.5173 20.3184 22.6233 19.9679C22.7293 19.6174 22.8193 19.2577 22.8931 18.8887C22.9715 18.5199 23.036 18.1532 23.0868 17.7889C23.1375 17.4245 23.1743 17.0672 23.1975 16.7167C23.2251 16.3615 23.239 16.025 23.239 15.7068C23.239 15.4577 23.2366 15.1764 23.232 14.8629C23.232 14.5447 23.2136 14.2219 23.1766 13.8944C23.1445 13.567 23.0891 13.2488 23.0106 12.9398C22.9323 12.6263 22.8146 12.3473 22.6578 12.1028C22.5056 11.8584 22.3075 11.6624 22.063 11.5149C21.8231 11.3673 21.5235 11.2935 21.1638 11.2935C20.8455 11.2935 20.5711 11.3489 20.3406 11.4595C20.1146 11.5656 19.921 11.7109 19.7595 11.8953C19.6028 12.0752 19.476 12.285 19.3791 12.5248C19.2868 12.7646 19.2131 13.0182 19.1576 13.2857C19.107 13.5486 19.0725 13.816 19.054 14.0881C19.0401 14.3556 19.0331 14.6092 19.0331 14.849V16.7789H22.0146V17.9204H19.0331V20.3414H16.287V15.2779C16.287 14.5539 16.4023 13.8806 16.633 13.258C16.8635 12.6355 17.1886 12.0959 17.6083 11.6394C18.0325 11.1782 18.5398 10.8185 19.13 10.5603C19.725 10.2974 20.3866 10.166 21.1153 10.166C21.6088 10.166 22.07 10.2375 22.4988 10.3804C22.9323 10.5188 23.3265 10.7125 23.6816 10.9615C24.0368 11.2059 24.3526 11.4987 24.6293 11.84C24.9106 12.1766 25.1435 12.5456 25.328 12.9468C25.517 13.348 25.66 13.7722 25.7568 14.2195C25.8536 14.6669 25.8975 15.1188 25.8883 15.5753Z" fill="#770207"/>
</svg>
