<svg width="16" height="16" viewBox="0 0 16 16" fill="none" xmlns="http://www.w3.org/2000/svg">
<path d="M8 16C12.4183 16 16 12.4183 16 8C16 3.58172 12.4183 0 8 0C3.58172 0 0 3.58172 0 8C0 12.4183 3.58172 16 8 16Z" fill="white"/>
<path d="M4.4561 10.1717H3.08301V5.1912H4.4561V7.56384C4.88036 7.23873 5.2758 6.87787 5.64242 6.48128C6.01134 6.08468 6.32838 5.65351 6.59355 5.18774H7.53085C7.28643 5.60508 7.00628 5.99476 6.69039 6.35677C6.3745 6.71878 6.03094 7.05426 5.65971 7.36323L7.64844 10.1717H6.21656L4.71896 8.05497C4.67515 8.08494 4.63134 8.11375 4.58752 8.14142C4.54602 8.16908 4.50222 8.19675 4.4561 8.22442V10.1717ZM12.9437 7.78865V7.85437C12.939 8.04805 12.9182 8.24867 12.8814 8.45617C12.8468 8.66367 12.7973 8.87125 12.7327 9.07875C12.6681 9.28625 12.5908 9.4915 12.5009 9.69433C12.411 9.89725 12.3096 10.091 12.1966 10.2754C12.0859 10.4622 11.966 10.6363 11.8369 10.7977C11.7077 10.9614 11.5717 11.1055 11.4287 11.23L10.9134 10.9326C10.9941 10.7965 11.0667 10.6478 11.1313 10.4864C11.1982 10.3273 11.2582 10.1602 11.3112 9.98492C11.3642 9.80967 11.4092 9.62983 11.4461 9.44533C11.4852 9.26092 11.5175 9.07758 11.5429 8.89542C11.5682 8.71325 11.5867 8.53458 11.5982 8.35933C11.6121 8.18175 11.619 8.01347 11.619 7.85437C11.619 7.72985 11.6178 7.5892 11.6155 7.43241C11.6155 7.27331 11.6063 7.11191 11.5878 6.9482C11.5717 6.78448 11.5441 6.62539 11.5048 6.4709C11.4657 6.31411 11.4068 6.17461 11.3284 6.0524C11.2523 5.9302 11.1533 5.8322 11.031 5.75842C10.9111 5.68463 10.7613 5.64774 10.5814 5.64774C10.4223 5.64774 10.2851 5.67541 10.1698 5.73075C10.0568 5.78378 9.96 5.85642 9.87925 5.94864C9.80092 6.03857 9.7375 6.14348 9.68908 6.26338C9.64292 6.38328 9.60608 6.5101 9.57833 6.64383C9.553 6.77527 9.53575 6.909 9.5265 7.04504C9.51958 7.17878 9.51608 7.30559 9.51608 7.42549V8.39042H11.0068V8.96117H9.51608V10.1717H8.14303V7.63993C8.14303 7.27793 8.20067 6.94128 8.316 6.63C8.43125 6.31872 8.59383 6.04894 8.80367 5.82068C9.01575 5.5901 9.26942 5.41025 9.5645 5.28113C9.862 5.14969 10.1928 5.08398 10.5572 5.08398C10.8039 5.08398 11.0345 5.11972 11.2489 5.1912C11.4657 5.26038 11.6627 5.35722 11.8403 5.48173C12.0179 5.60393 12.1758 5.75035 12.3142 5.92098C12.4548 6.0893 12.5713 6.27376 12.6635 6.47436C12.758 6.67497 12.8295 6.88709 12.8779 7.11075C12.9263 7.33442 12.9483 7.56038 12.9437 7.78865Z" fill="#770207"/>
</svg>
