<svg width="192" height="192" viewBox="0 0 192 192" fill="none" xmlns="http://www.w3.org/2000/svg">
<path d="M96 192C149.019 192 192 149.019 192 96C192 42.9807 149.019 0 96 0C42.9807 0 0 42.9807 0 96C0 149.019 42.9807 192 96 192Z" fill="white"/>
<path d="M53.4771 122.052H37V62.2866H53.4771V90.7583C58.5682 86.8569 63.3135 82.5266 67.7129 77.7675C72.14 73.0084 75.9445 67.8343 79.1265 62.2451H90.3741C87.4411 67.2532 84.0793 71.9293 80.2886 76.2734C76.4979 80.6175 72.3752 84.6433 67.9204 88.351L91.7852 122.052H74.6026L56.6314 96.6518C56.1057 97.0115 55.58 97.3572 55.0542 97.6892C54.5562 98.0212 54.0305 98.3532 53.4771 98.6852V122.052ZM155.328 93.456V94.2446C155.272 96.5688 155.023 98.9762 154.581 101.466C154.166 103.956 153.571 106.447 152.796 108.937C152.021 111.427 151.094 113.89 150.015 116.324C148.936 118.759 147.719 121.084 146.363 123.297C145.035 125.538 143.596 127.627 142.047 129.564C140.497 131.529 138.865 133.258 137.149 134.752L130.965 131.183C131.933 129.55 132.805 127.766 133.58 125.829C134.382 123.92 135.102 121.914 135.738 119.811C136.374 117.708 136.914 115.55 137.357 113.336C137.827 111.123 138.214 108.923 138.519 106.737C138.823 104.551 139.044 102.407 139.183 100.304C139.349 98.1732 139.432 96.1538 139.432 94.2446C139.432 92.7504 139.418 91.0626 139.39 89.1811C139.39 87.2719 139.28 85.3351 139.058 83.3706C138.865 81.406 138.533 79.4969 138.062 77.643C137.592 75.7615 136.886 74.0875 135.945 72.621C135.032 71.1546 133.843 69.9786 132.376 69.0932C130.937 68.2078 129.139 67.7651 126.981 67.7651C125.071 67.7651 123.425 68.0971 122.042 68.7612C120.686 69.3976 119.524 70.2692 118.555 71.3759C117.615 72.455 116.854 73.714 116.273 75.1528C115.719 76.5916 115.277 78.1134 114.944 79.7182C114.64 81.2954 114.433 82.9002 114.322 84.5327C114.239 86.1375 114.197 87.6593 114.197 89.0981V100.677H132.086V107.526H114.197V122.052H97.7203V91.6713C97.7203 87.3273 98.412 83.2876 99.7959 79.5522C101.179 75.8168 103.13 72.5795 105.648 69.8403C108.193 67.0734 111.237 64.9152 114.778 63.3657C118.348 61.7885 122.318 61 126.69 61C129.651 61 132.418 61.4288 134.991 62.2866C137.592 63.1167 139.957 64.2788 142.088 65.7729C144.219 67.2394 146.114 68.9964 147.774 71.0439C149.462 73.0638 150.859 75.2773 151.966 77.6845C153.1 80.0918 153.958 82.6373 154.539 85.3212C155.12 88.0052 155.383 90.7168 155.328 93.456Z" fill="#770207"/>
</svg>
