<svg width="134" height="33" viewBox="0 0 134 33" fill="none" xmlns="http://www.w3.org/2000/svg">
<path d="M6.51362 0H133.277L126.763 32.19H0L6.51362 0Z" fill="#770207"/>
<path d="M16.7378 23.367H11.5723V5.40878H16.7378V13.9639C18.3338 12.7917 19.8214 11.4906 21.2006 10.0605C22.5886 8.63057 23.7813 7.0759 24.7788 5.39648H28.3049C27.3853 6.90117 26.3315 8.30628 25.1432 9.61166C23.9548 10.9168 22.6622 12.1264 21.2658 13.2405L28.7473 23.367H23.3605L17.7267 15.7348C17.5619 15.8428 17.397 15.9468 17.2321 16.0466C17.0761 16.1463 16.9113 16.2461 16.7378 16.3459V23.367ZM48.6679 14.7744V15.0115C48.6504 15.7098 48.5725 16.4331 48.4336 17.1814C48.3036 17.9297 48.117 18.678 47.874 19.4262C47.6313 20.1745 47.3405 20.9143 47.0024 21.6461C46.6639 22.3777 46.2824 23.076 45.8572 23.7411C45.441 24.4146 44.9898 25.0422 44.504 25.6243C44.0183 26.2146 43.5065 26.7341 42.9688 27.1832L41.0301 26.1106C41.3335 25.62 41.6069 25.0839 41.8498 24.5019C42.1013 23.9283 42.3269 23.3255 42.5264 22.6937C42.726 22.0616 42.895 21.4133 43.0338 20.748C43.1812 20.083 43.3027 19.4221 43.3982 18.7653C43.4935 18.1085 43.5628 17.4642 43.6064 16.8322C43.6583 16.1921 43.6844 15.5852 43.6844 15.0115C43.6844 14.5624 43.68 14.0553 43.6713 13.49C43.6713 12.9163 43.6366 12.3344 43.5672 11.7441C43.5065 11.1538 43.4024 10.5802 43.255 10.0232C43.1076 9.45766 42.8864 8.95483 42.5914 8.51408C42.3052 8.0735 41.9322 7.72021 41.4725 7.45418C41.0213 7.18796 40.4575 7.05493 39.7809 7.05493C39.1824 7.05493 38.6662 7.1547 38.2326 7.35422C37.8075 7.54548 37.4433 7.80748 37.1397 8.14002C36.8446 8.46427 36.6062 8.84259 36.4241 9.27487C36.2504 9.70718 36.1116 10.1645 36.0076 10.6467C35.9123 11.1206 35.8471 11.6028 35.8124 12.0932C35.7864 12.5755 35.7735 13.0328 35.7735 13.465V16.9444H41.3813V19.0021H35.7735V23.367H30.608V14.2383C30.608 12.933 30.8248 11.7192 31.2585 10.5968C31.6922 9.47441 32.3038 8.50158 33.0932 7.6785C33.8912 6.84715 34.8454 6.19861 35.9556 5.73305C37.0745 5.25923 38.3193 5.02222 39.6898 5.02222C40.618 5.02222 41.4854 5.1512 42.2922 5.40878C43.1076 5.65828 43.8492 6.00754 44.517 6.45637C45.1851 6.89713 45.7792 7.42497 46.2999 8.04026C46.8289 8.6471 47.2669 9.31217 47.6138 10.0355C47.9694 10.7588 48.2383 11.5239 48.4205 12.3302C48.6027 13.1368 48.6851 13.9514 48.6679 14.7744ZM54.4319 23.367H52.0377V5.40878H55.3946L66.7794 17.7427V5.40878H69.1606V23.367H65.8036L54.4319 11.0458V23.367ZM86.856 23.367H73.4023V5.40878H86.856V7.70348H78.568V13.253H84.9696V15.5353H78.568V21.0723H86.856V23.367ZM93.7914 9.97322L92.334 23.367H89.1461L92.334 5.40878H97.057L101.442 19.1144L105.879 5.40878H110.602L113.256 23.367H108L106.451 10.3225L102.795 23.367H98.0721L93.7914 9.97322ZM121.714 23.367H116.548V5.40878H121.714V23.367Z" fill="white"/>
</svg>
