<svg width="9" height="14" viewBox="0 0 9 14" fill="none" xmlns="http://www.w3.org/2000/svg">
<path d="M8.57756 4.53797C8.57756 3.46691 8.15208 2.43971 7.39472 1.68235C6.63737 0.924991 5.61017 0.499512 4.5391 0.499512C3.46804 0.499512 2.44084 0.924991 1.68348 1.68235C0.92612 2.43971 0.500641 3.46691 0.500641 4.53797C0.500641 4.75219 0.585737 4.95763 0.737209 5.1091C0.88868 5.26057 1.09412 5.34567 1.30833 5.34567C1.52255 5.34567 1.72799 5.26057 1.87946 5.1091C2.03093 4.95763 2.11603 4.75219 2.11603 4.53797C2.11603 4.05873 2.25814 3.59026 2.52439 3.19178C2.79064 2.79331 3.16907 2.48274 3.61183 2.29934C4.05459 2.11595 4.54179 2.06796 5.01182 2.16146C5.48185 2.25495 5.9136 2.48573 6.25248 2.8246C6.59135 3.16347 6.82212 3.59522 6.91562 4.06525C7.00911 4.53528 6.96113 5.02248 6.77773 5.46524C6.59434 5.908 6.28376 6.28644 5.88529 6.55269C5.48682 6.81894 5.01834 6.96105 4.5391 6.96105C4.32489 6.96105 4.11945 7.04615 3.96798 7.19762C3.81651 7.34909 3.73141 7.55453 3.73141 7.76874V9.38413C3.73141 9.59834 3.81651 9.80378 3.96798 9.95525C4.11945 10.1067 4.32489 10.1918 4.5391 10.1918C4.75332 10.1918 4.95875 10.1067 5.11023 9.95525C5.2617 9.80378 5.34679 9.59834 5.34679 9.38413V8.49566C6.25897 8.30947 7.07881 7.81383 7.66754 7.09262C8.25628 6.37142 8.57775 5.46896 8.57756 4.53797V4.53797Z" fill="white"/>
<path d="M4.53938 13.5695C4.98546 13.5695 5.34707 13.2079 5.34707 12.7618C5.34707 12.3157 4.98546 11.9541 4.53938 11.9541C4.09331 11.9541 3.73169 12.3157 3.73169 12.7618C3.73169 13.2079 4.09331 13.5695 4.53938 13.5695Z" fill="white"/>
</svg>
